<svg width="12" height="8" viewBox="0 0 12 8" fill="none" xmlns="http://www.w3.org/2000/svg">
<path d="M5.99999 7.12101C5.86865 7.12116 5.73857 7.09535 5.61724 7.04507C5.49591 6.99479 5.38572 6.92102 5.29299 6.82801L1.05028 2.58586C0.86276 2.39834 0.757415 2.14402 0.757416 1.87883C0.757417 1.61364 0.862763 1.35931 1.05028 1.1718C1.2378 0.98428 1.49213 0.878935 1.75731 0.878936C2.0225 0.878937 2.27683 0.984283 2.46435 1.1718L5.99999 4.70692L9.53563 1.17177C9.72314 0.984254 9.97747 0.878907 10.2427 0.878906C10.5078 0.878905 10.7622 0.98425 10.9497 1.17177C11.1372 1.35928 11.2426 1.61361 11.2426 1.8788C11.2426 2.14399 11.1372 2.39831 10.9497 2.58583L6.70699 6.82804C6.61425 6.92105 6.50406 6.99481 6.38272 7.04508C6.26139 7.09536 6.13132 7.12117 5.99999 7.12101Z" fill="#F6F9FE"/>
</svg>
