<svg width="20" height="20" viewBox="0 0 20 20" fill="none" xmlns="http://www.w3.org/2000/svg">
<path d="M13.0981 10.6338L11 9.42285V5C11 4.73478 10.8946 4.48043 10.7071 4.29289C10.5196 4.10536 10.2652 4 10 4C9.73479 4 9.48043 4.10536 9.2929 4.29289C9.10536 4.48043 9 4.73478 9 5V10C8.99996 10.1756 9.04614 10.3481 9.13391 10.5001C9.22168 10.6522 9.34795 10.7784 9.5 10.8662L12.0981 12.3662C12.2119 12.432 12.3375 12.4746 12.4678 12.4918C12.598 12.509 12.7304 12.5004 12.8573 12.4664C12.9842 12.4324 13.1032 12.3737 13.2074 12.2938C13.3117 12.2138 13.3991 12.114 13.4648 12.0003C13.5305 11.8865 13.5731 11.7608 13.5902 11.6306C13.6073 11.5003 13.5986 11.368 13.5646 11.2411C13.5305 11.1142 13.4718 10.9952 13.3918 10.891C13.3117 10.7868 13.212 10.6994 13.0981 10.6338ZM10 0C8.02219 0 6.08879 0.58649 4.4443 1.6853C2.79981 2.78412 1.51809 4.3459 0.761209 6.17317C0.00433284 8.00043 -0.193701 10.0111 0.192152 11.9509C0.578004 13.8907 1.53041 15.6725 2.92894 17.0711C4.32746 18.4696 6.10929 19.422 8.0491 19.8079C9.98891 20.1937 11.9996 19.9957 13.8268 19.2388C15.6541 18.4819 17.2159 17.2002 18.3147 15.5557C19.4135 13.9112 20 11.9778 20 10C19.9971 7.34874 18.9425 4.80691 17.0678 2.93219C15.1931 1.05746 12.6513 0.00294858 10 0ZM10 18C8.41775 18 6.87104 17.5308 5.55544 16.6518C4.23985 15.7727 3.21447 14.5233 2.60897 13.0615C2.00347 11.5997 1.84504 9.99113 2.15372 8.43928C2.4624 6.88743 3.22433 5.46197 4.34315 4.34315C5.46197 3.22433 6.88743 2.4624 8.43928 2.15372C9.99113 1.84504 11.5997 2.00346 13.0615 2.60896C14.5233 3.21447 15.7727 4.23984 16.6518 5.55544C17.5308 6.87103 18 8.41775 18 10C17.9976 12.121 17.1539 14.1544 15.6542 15.6542C14.1544 17.1539 12.121 17.9976 10 18Z" fill="#52A6F8"/>
</svg>
