<svg width="12" height="14" viewBox="0 0 12 14" fill="none" xmlns="http://www.w3.org/2000/svg">
<path d="M8.66667 4.33301H11.6L8 0.733008V3.66634C8 4.06634 8.26667 4.33301 8.66667 4.33301ZM8.66667 5.66634C7.53333 5.66634 6.66667 4.79967 6.66667 3.66634V0.333008H4.66667C3.53333 0.333008 2.66667 1.19967 2.66667 2.33301V2.99967H2C0.866667 2.99967 0 3.86634 0 4.99967V11.6663C0 12.7997 0.866667 13.6663 2 13.6663H7.33333C8.46667 13.6663 9.33333 12.7997 9.33333 11.6663V10.9997H10C11.1333 10.9997 12 10.133 12 8.99967V5.66634H8.66667ZM8 11.6663C8 12.0663 7.73333 12.333 7.33333 12.333H2C1.6 12.333 1.33333 12.0663 1.33333 11.6663V4.99967C1.33333 4.59967 1.6 4.33301 2 4.33301H2.66667V8.99967C2.66667 10.133 3.53333 10.9997 4.66667 10.9997H8V11.6663Z" fill="#52A6F8"/>
</svg>
