<svg width="20" height="20" viewBox="0 0 20 20" fill="none" xmlns="http://www.w3.org/2000/svg">
<path d="M17.0683 2.93253C15.4326 1.29977 13.2814 0.284622 10.9813 0.0600061C8.6811 -0.16461 6.37421 0.415204 4.45357 1.70068C2.53292 2.98616 1.11735 4.89778 0.447982 7.10989C-0.221382 9.322 -0.103127 11.6978 0.782603 13.8325C1.66833 15.9672 3.26674 17.7288 5.30554 18.8171C7.34435 19.9055 9.69742 20.2534 11.9639 19.8014C14.2304 19.3495 16.2701 18.1257 17.7356 16.3386C19.2011 14.5515 20.0016 12.3115 20.0009 10.0004C19.9979 7.34902 18.9432 4.80716 17.0683 2.93253ZM9.48273 18.9461C7.20457 18.8068 5.06537 17.8036 3.5015 16.1411C1.93762 14.4786 1.06689 12.2821 1.06689 9.99963C1.06689 7.71716 1.93762 5.52068 3.5015 3.8582C5.06537 2.19572 7.20457 1.19249 9.48273 1.05316V4.44463C8.09805 4.57278 6.81114 5.21348 5.87424 6.24112C4.93735 7.26875 4.41801 8.60923 4.41801 9.99986C4.41801 11.3905 4.93735 12.731 5.87424 13.7586C6.81114 14.7863 8.09805 15.4269 9.48273 15.5551V18.9461ZM10.0002 14.5454C8.94722 14.5463 7.92656 14.1821 7.11213 13.5147C6.2977 12.8473 5.73991 11.9182 5.53384 10.8856C5.32777 9.85299 5.48619 8.78088 5.98207 7.85201C6.47795 6.92314 7.2806 6.19501 8.25323 5.79169C9.22585 5.38838 10.3082 5.33485 11.3159 5.64026C12.3236 5.94566 13.1941 6.59107 13.7792 7.46649C14.3643 8.34192 14.6277 9.39318 14.5245 10.4411C14.4213 11.489 13.9579 12.4686 13.2132 13.2131C12.3614 14.0656 11.2058 14.5448 10.0006 14.5454H10.0002ZM16.5136 16.1481C14.9453 17.8112 12.801 18.8123 10.519 18.9466V15.5551C11.9037 15.4269 13.1906 14.7863 14.1275 13.7586C15.0644 12.731 15.5838 11.3905 15.5838 9.99986C15.5838 8.60923 15.0644 7.26875 14.1275 6.24112C13.1906 5.21348 11.9037 4.57278 10.519 4.44463V1.05316C12.2211 1.15373 13.8592 1.73773 15.241 2.73659C16.6228 3.73545 17.6911 5.10775 18.3204 6.69243C18.9498 8.27711 19.1141 10.0084 18.794 11.6832C18.474 13.358 17.6829 14.9067 16.5136 16.1476V16.1481Z" fill="url(#paint0_linear_2618_3306)"/>
<defs>
<linearGradient id="paint0_linear_2618_3306" x1="2.93702" y1="17.077" x2="17.064" y2="2.95035" gradientUnits="userSpaceOnUse">
<stop offset="0.005" stop-color="#4E9DF7"/>
<stop offset="0.996" stop-color="#6CD8F9"/>
<stop offset="1" stop-color="#6DD9FA"/>
</linearGradient>
</defs>
</svg>
