<svg width="40" height="40" viewBox="0 0 40 40" fill="none" xmlns="http://www.w3.org/2000/svg">
<g clip-path="url(#clip0_7151_908)">
<path d="M34.1366 5.86897C30.8652 2.60345 26.5629 0.57315 21.9626 0.123918C17.3622 -0.325313 12.7484 0.834315 8.90714 3.40527C5.06585 5.97622 2.23469 9.79947 0.895964 14.2237C-0.442764 18.6479 -0.206255 23.3994 1.56521 27.6688C3.33667 31.9382 6.53348 35.4614 10.6111 37.6382C14.6887 39.8149 19.3948 40.5106 23.9278 39.6067C28.4608 38.7029 32.5403 36.2553 35.4712 32.6811C38.4021 29.1068 40.0032 24.627 40.0018 20.0046C39.9957 14.702 37.8864 9.61822 34.1366 5.86897ZM18.9655 37.8961C14.4091 37.6174 10.1307 35.611 7.003 32.2861C3.87525 28.9611 2.13379 24.5681 2.13379 20.0032C2.13379 15.4382 3.87525 11.0453 7.003 7.72031C10.1307 4.39535 14.4091 2.38888 18.9655 2.11022V8.89317C16.1961 9.14947 13.6223 10.4309 11.7485 12.4861C9.87469 14.5414 8.83602 17.2224 8.83602 20.0036C8.83602 22.7849 9.87469 25.4659 11.7485 27.5212C13.6223 29.5765 16.1961 30.8578 18.9655 31.1141V37.8961ZM20.0003 29.0947C17.8945 29.0966 15.8531 28.3681 14.2243 27.0333C12.5954 25.6986 11.4798 23.8403 11.0677 21.7751C10.6555 19.7099 10.9724 17.5657 11.9641 15.7079C12.9559 13.8502 14.5612 12.3939 16.5065 11.5873C18.4517 10.7807 20.6165 10.6736 22.6318 11.2844C24.6472 11.8952 26.3883 13.186 27.5585 14.9369C28.7286 16.6877 29.2554 18.7903 29.049 20.886C28.8426 22.9818 27.9158 24.9411 26.4265 26.43C24.7227 28.135 22.4116 29.0935 20.0013 29.0947H20.0003ZM33.0271 32.3001C29.8907 35.6264 25.6019 37.6285 21.0381 37.897V31.1141C23.8074 30.8578 26.3812 29.5765 28.255 27.5212C30.1288 25.4659 31.1675 22.7849 31.1675 20.0036C31.1675 17.2224 30.1288 14.5414 28.255 12.4861C26.3812 10.4309 23.8074 9.14947 21.0381 8.89317V2.11022C24.4422 2.31137 27.7183 3.47937 30.482 5.47709C33.2457 7.47482 35.3822 10.2194 36.6409 13.3888C37.8995 16.5581 38.2281 20.0208 37.588 23.3703C36.9479 26.7199 35.3657 29.8173 33.0271 32.2992V32.3001Z" fill="url(#paint0_linear_7151_908)"/>
</g>
<defs>
<linearGradient id="paint0_linear_7151_908" x1="5.87403" y1="34.1579" x2="34.128" y2="5.90461" gradientUnits="userSpaceOnUse">
<stop offset="0.005" stop-color="#4E9DF7"/>
<stop offset="0.996" stop-color="#6CD8F9"/>
<stop offset="1" stop-color="#6DD9FA"/>
</linearGradient>
<clipPath id="clip0_7151_908">
<rect width="40" height="40" fill="white"/>
</clipPath>
</defs>
</svg>
