<svg width="18" height="21" viewBox="0 0 18 21" fill="currentColor" xmlns="http://www.w3.org/2000/svg">
    <path d="M7.13832 8.6297H7.13818C6.85895 8.62972 6.59116 8.74066 6.39372 8.93812C6.19628 9.13557 6.08536 9.40338 6.08537 9.68261C6.08538 9.96185 6.19631 10.2296 6.39376 10.4271C6.59122 10.6245 6.85901 10.7355 7.13825 10.7355C7.41748 10.7355 7.68528 10.6245 7.88274 10.4271C8.08019 10.2296 8.19112 9.96185 8.19113 9.68261C8.19114 9.40338 8.08022 9.13557 7.88278 8.93812C7.68534 8.74066 7.41755 8.62972 7.13832 8.6297ZM10.8926 8.6297C10.6627 8.61022 10.4322 8.66061 10.2314 8.77428C10.0306 8.88795 9.86877 9.0596 9.76714 9.26676C9.6655 9.47393 9.62879 9.70695 9.6618 9.93533C9.6948 10.1637 9.796 10.3768 9.95213 10.5467C10.1083 10.7166 10.312 10.8354 10.5368 10.8876C10.7616 10.9398 10.9969 10.9228 11.2119 10.839C11.4269 10.7552 11.6116 10.6085 11.7418 10.418C11.872 10.2275 11.9417 10.0021 11.9417 9.77136C11.9478 9.6275 11.9255 9.48384 11.8761 9.34859C11.8267 9.21334 11.7511 9.08915 11.6537 8.98312C11.5563 8.8771 11.4389 8.79131 11.3083 8.73067C11.1777 8.67003 11.0364 8.63572 10.8926 8.6297ZM15.8914 0H2.10865C1.83106 0.000655805 1.55632 0.0559843 1.30012 0.162826C1.04391 0.269668 0.811263 0.42593 0.615455 0.622689C0.419646 0.819449 0.264513 1.05285 0.158914 1.30957C0.0533144 1.56629 -0.000682443 1.84129 6.51056e-06 2.11888V16.0252C-0.000670609 16.3027 0.0533348 16.5777 0.158939 16.8344C0.264543 17.0911 0.419677 17.3245 0.615484 17.5213C0.811291 17.718 1.04394 17.8743 1.30013 17.9811C1.55633 18.088 1.83106 18.1433 2.10865 18.144H13.7726L13.2274 16.2411L14.544 17.4651L15.7886 18.6171L18 20.5714V2.11888C18.0007 1.84129 17.9467 1.56629 17.8411 1.30957C17.7355 1.05285 17.5804 0.819449 17.3846 0.622689C17.1887 0.42593 16.9561 0.269668 16.6999 0.162826C16.4437 0.0559843 16.1689 0.000655805 15.8914 0ZM11.9211 13.4331V13.4332C11.9211 13.4332 11.5508 12.9908 11.2422 12.6C11.9878 12.4244 12.6473 11.9909 13.104 11.376C12.7339 11.6223 12.3371 11.8259 11.9211 11.9828C11.4426 12.1871 10.9422 12.3355 10.4297 12.4251C9.54879 12.5873 8.64538 12.5838 7.76575 12.4149C7.24931 12.3138 6.74318 12.1657 6.25366 11.9726C5.99567 11.8734 5.7448 11.7565 5.50281 11.6229C5.47192 11.6022 5.44117 11.592 5.41029 11.5714C5.39481 11.5637 5.38086 11.5533 5.36914 11.5406C5.18408 11.4377 5.08106 11.3657 5.08106 11.3657C5.5213 11.9677 6.15798 12.397 6.8811 12.5794C6.57263 12.9703 6.19203 13.4331 6.19203 13.4331C5.58104 13.4496 4.97537 13.3156 4.42834 13.043C3.8813 12.7703 3.40966 12.3674 3.05494 11.8697C3.08833 9.78449 3.59475 7.73409 4.53601 5.87311C5.36436 5.22254 6.37426 4.84517 7.42626 4.79311L7.52904 4.91659C6.53931 5.16149 5.61572 5.62153 4.82401 6.26398C4.82401 6.26398 5.05033 6.14057 5.43083 5.9657C6.17021 5.62818 6.95824 5.4095 7.76582 5.31775C7.82341 5.30577 7.88195 5.29886 7.94074 5.29712C8.62999 5.20733 9.3275 5.20045 10.0184 5.27661C11.1049 5.40067 12.1567 5.73609 13.1144 6.26398C12.3628 5.65219 11.4899 5.20695 10.5534 4.9577L10.6973 4.79321C11.7493 4.84523 12.7592 5.2226 13.5876 5.87321C14.5289 7.73414 15.0354 9.78453 15.0688 11.8697C14.7111 12.367 14.2374 12.7694 13.6889 13.0418C13.1403 13.3143 12.5335 13.4486 11.9211 13.4331Z" fill="currentColor" />
</svg>