<svg width="70" height="67" viewBox="0 0 70 67" fill="none" xmlns="http://www.w3.org/2000/svg">
    <path d="M70 33.4192C70 36.8818 63.7965 39.3212 62.782 42.4457C61.7298 45.6841 65.2784 51.2973 63.3162 53.9919C61.3356 56.7144 54.8877 55.0642 52.1651 57.0459C49.4696 59.0071 49.058 65.659 45.8206 66.7071C42.6961 67.7215 38.4665 62.6146 34.9999 62.6146C31.5333 62.6146 27.3075 67.7215 24.1792 66.7071C20.9408 65.6549 20.5292 59.0032 17.8337 57.0459C15.1121 55.0653 8.66419 56.7155 6.68258 53.9929C4.72137 51.2973 8.26896 45.6841 7.21777 42.4467C6.20354 39.3222 0 36.8828 0 33.4202C0 29.9577 6.20354 27.5182 7.21797 24.3937C8.26916 21.1561 4.72157 15.5429 6.68278 12.8476C8.66439 10.125 15.1123 11.7752 17.8349 9.79459C20.5294 7.83338 20.941 1.18049 24.1794 0.133336C27.3039 -0.881098 31.5335 4.22581 35.0001 4.22581C38.4665 4.22581 42.6925 -0.881098 45.8208 0.133336C49.0584 1.18453 49.4708 7.83722 52.1653 9.79459C54.8879 11.7762 61.3358 10.126 63.3174 12.8476C65.2786 15.5431 61.73 21.1563 62.7822 24.3937C63.7965 27.517 70 29.9564 70 33.4192Z" fill="#EA6161" />
    <path d="M26.607 40.6255L26.1464 40.8163C26.0013 40.4661 25.9634 40.0808 26.0373 39.7091C26.1112 39.3373 26.2937 38.9959 26.5617 38.7278L26.5617 38.7278L40.7284 24.5611L40.7316 24.5579L40.7316 24.5579C41.0921 24.2039 41.5779 24.0065 42.0831 24.0088C42.5884 24.0111 43.0723 24.2128 43.4296 24.5701C43.7869 24.9274 43.9887 25.4113 43.9909 25.9166C43.9932 26.4219 43.7959 26.9076 43.4418 27.2681L43.4387 27.2714L43.4387 27.2714L29.2725 41.4375L26.607 40.6255ZM26.607 40.6255L26.1464 40.8163C26.2914 41.1665 26.537 41.4658 26.8521 41.6764C27.1671 41.8869 27.5374 41.9994 27.9163 41.9996M26.607 40.6255L27.9163 41.9996M27.9163 41.9996C28.1682 41.9998 28.4177 41.9503 28.6505 41.8539C28.883 41.7575 29.0942 41.6162 29.272 41.438L27.9163 41.9996Z" fill="#F6F9FE" stroke="#F6F9FE" />
    <path d="M26.5584 27.2682L26.5584 27.2681C26.2044 26.9076 26.007 26.4219 26.0093 25.9166C26.0116 25.4113 26.2133 24.9274 26.5706 24.5701C26.9279 24.2128 27.4118 24.0111 27.9171 24.0088C28.4224 24.0065 28.9081 24.2039 29.2686 24.5579L29.2719 24.5611L29.2719 24.5611L43.4385 38.7278L43.4386 38.7278C43.7065 38.9959 43.889 39.3373 43.9629 39.7091C44.0369 40.0808 43.9989 40.4661 43.8539 40.8163L43.3919 40.625L43.8539 40.8163C43.7088 41.1665 43.4632 41.4658 43.1481 41.6764C42.8331 41.8869 42.4628 41.9994 42.0839 41.9996C42.0838 41.9996 42.0836 41.9996 42.0835 41.9996L42.0834 41.4996C41.8973 41.4998 41.7131 41.4632 41.5412 41.392C41.3693 41.3207 41.2132 41.2162 41.0818 41.0845L26.5584 27.2682ZM26.5584 27.2682L26.5616 27.2714L40.7277 41.4375L26.5584 27.2682Z" fill="#F6F9FE" stroke="#F6F9FE" />
</svg>