<svg width="17" height="14" viewBox="0 0 17 14" fill="currentColor" xmlns="http://www.w3.org/2000/svg">
    <path d="M12.3125 7.69531H9.60324C9.21609 7.26551 8.72805 6.93645 8.17188 6.73871V3.51562H9.78148C9.89871 3.59207 10.2981 4.10156 11.1016 4.10156C12.0709 4.10156 12.8594 3.31305 12.8594 2.34375C12.8594 1.37445 12.0709 0.585938 11.1016 0.585938C10.2972 0.585938 9.89894 1.09527 9.78148 1.17188H8.24398L8.10551 0.781641C7.93957 0.314141 7.49555 0 7 0C6.50445 0 6.06043 0.314141 5.89449 0.781641L5.75602 1.17188H4.21852C4.10129 1.09543 3.70187 0.585938 2.89844 0.585938C1.92914 0.585938 1.14062 1.37445 1.14062 2.34375C1.14062 3.31305 1.92914 4.10156 2.89844 4.10156C3.70281 4.10156 4.10105 3.59223 4.21852 3.51562H5.82812V6.73871C5.27195 6.93641 4.78391 7.26551 4.39676 7.69531H0.515625V12.3828H4.38617H4.39676C5.04027 13.0971 5.96289 13.5547 7 13.5547C8.03711 13.5547 8.95973 13.0971 9.60324 12.3828H9.61383H11.1406C11.5697 12.3828 11.9288 12.6248 12.1329 12.9688H17V12.3828C17 9.79395 14.9014 7.69531 12.3125 7.69531Z" fill="currentColor" />
</svg>