<svg width="20" height="20" viewBox="0 0 18 18" fill="none" xmlns="http://www.w3.org/2000/svg">
    <path d="M14.8333 0.666992H3.16667C2.50363 0.666992 1.86774 0.930384 1.3989 1.39923C0.93006 1.86807 0.666668 2.50395 0.666668 3.16699V4.14199C0.666549 4.48611 0.737473 4.82655 0.875001 5.14199V5.19199C0.992734 5.45947 1.15949 5.70254 1.36667 5.90866L6.5 11.0087V16.5003C6.49972 16.6419 6.53553 16.7813 6.60406 16.9052C6.67259 17.0292 6.77157 17.1336 6.89167 17.2087C7.02429 17.2909 7.17731 17.3342 7.33333 17.3337C7.46379 17.3329 7.59223 17.3015 7.70833 17.242L11.0417 15.5753C11.1791 15.5061 11.2947 15.4001 11.3756 15.2692C11.4565 15.1383 11.4995 14.9875 11.5 14.8337V11.0087L16.6 5.90866C16.8072 5.70254 16.9739 5.45947 17.0917 5.19199V5.14199C17.2407 4.82902 17.323 4.48848 17.3333 4.14199V3.16699C17.3333 2.50395 17.0699 1.86807 16.6011 1.39923C16.1323 0.930384 15.4964 0.666992 14.8333 0.666992ZM10.075 10.0753C9.99777 10.1532 9.93666 10.2455 9.89519 10.3471C9.85372 10.4486 9.8327 10.5573 9.83333 10.667V14.317L8.16667 15.1503V10.667C8.1673 10.5573 8.14628 10.4486 8.10481 10.3471C8.06334 10.2455 8.00224 10.1532 7.925 10.0753L3.50833 5.66699H14.4917L10.075 10.0753ZM15.6667 4.00033H2.33333V3.16699C2.33333 2.94598 2.42113 2.73402 2.57741 2.57774C2.73369 2.42146 2.94565 2.33366 3.16667 2.33366H14.8333C15.0543 2.33366 15.2663 2.42146 15.4226 2.57774C15.5789 2.73402 15.6667 2.94598 15.6667 3.16699V4.00033Z" fill="#52A6F8" />
</svg>