<svg width="20" height="21" viewBox="0 0 20 21" fill="none" xmlns="http://www.w3.org/2000/svg">
<path d="M10 0.655762C8.02219 0.655762 6.08879 1.23264 4.4443 2.31344C2.79981 3.39424 1.51809 4.93042 0.761209 6.72773C0.00433284 8.52503 -0.193701 10.5027 0.192152 12.4107C0.578004 14.3188 1.53041 16.0714 2.92894 17.447C4.32746 18.8226 6.10929 19.7594 8.0491 20.1389C9.98891 20.5184 11.9996 20.3236 13.8268 19.5792C15.6541 18.8347 17.2159 17.574 18.3147 15.9565C19.4135 14.3389 20 12.4372 20 10.4918C19.9971 7.88403 18.9425 5.38387 17.0678 3.53988C15.1931 1.69589 12.6513 0.658662 10 0.655762ZM10 18.3607C8.41775 18.3607 6.87104 17.8992 5.55544 17.0345C4.23985 16.1699 3.21447 14.941 2.60897 13.5031C2.00347 12.0653 1.84504 10.4831 2.15372 8.95669C2.4624 7.43028 3.22433 6.02819 4.34315 4.92771C5.46197 3.82723 6.88743 3.07779 8.43928 2.77417C9.99113 2.47055 11.5997 2.62638 13.0615 3.22196C14.5233 3.81753 15.7727 4.8261 16.6518 6.12013C17.5308 7.41415 18 8.93552 18 10.4918C17.9976 12.578 17.1539 14.5781 15.6542 16.0533C14.1544 17.5285 12.121 18.3583 10 18.3607ZM10 10C9.73479 10 9.48043 10.1037 9.2929 10.2881C9.10536 10.4726 9 10.7228 9 10.9836V13.9345C9 14.1953 9.10536 14.4455 9.2929 14.63C9.48043 14.8144 9.73479 14.9181 10 14.9181C10.2652 14.9181 10.5196 14.8144 10.7071 14.63C10.8946 14.4455 11 14.1953 11 13.9345V10.9836C11 10.7228 10.8946 10.4726 10.7071 10.2881C10.5196 10.1037 10.2652 10 10 10ZM10 6.0656C9.75278 6.0656 9.5111 6.13771 9.30554 6.27281C9.09998 6.40791 8.93976 6.59993 8.84516 6.82459C8.75055 7.04926 8.72579 7.29647 8.77402 7.53497C8.82225 7.77347 8.94131 7.99255 9.11612 8.1645C9.29094 8.33645 9.51367 8.45355 9.75614 8.50099C9.99862 8.54843 10.25 8.52408 10.4784 8.43102C10.7068 8.33797 10.902 8.18038 11.0393 7.97818C11.1767 7.77599 11.25 7.53828 11.25 7.29511C11.25 6.96902 11.1183 6.65629 10.8839 6.42571C10.6495 6.19514 10.3315 6.0656 10 6.0656Z" fill="#52A6F8"/>
</svg>
