<svg width="16" height="16" viewBox="0 0 16 16" fill="none" xmlns="http://www.w3.org/2000/svg">
<path d="M8.00016 14.6663C11.6821 14.6663 14.6668 11.6816 14.6668 7.99967C14.6668 4.31778 11.6821 1.33301 8.00016 1.33301C4.31826 1.33301 1.3335 4.31778 1.3335 7.99967C1.3335 11.6816 4.31826 14.6663 8.00016 14.6663Z" fill="#52A6F8"/>
<path d="M7.99989 11.3335C7.91233 11.3336 7.82561 11.3164 7.74471 11.2829C7.6638 11.2494 7.59029 11.2003 7.52837 11.1384C7.46646 11.0765 7.41735 11.003 7.38387 10.9221C7.35038 10.8412 7.33317 10.7544 7.33322 10.6669V8.00022C7.33322 7.82341 7.40346 7.65384 7.52849 7.52881C7.65351 7.40379 7.82308 7.33355 7.99989 7.33355C8.1767 7.33355 8.34627 7.40379 8.47129 7.52881C8.59632 7.65384 8.66656 7.82341 8.66656 8.00022V10.6669C8.66661 10.7544 8.6494 10.8412 8.61591 10.9221C8.58243 11.003 8.53332 11.0765 8.4714 11.1384C8.40949 11.2003 8.33598 11.2494 8.25507 11.2829C8.17416 11.3164 8.08745 11.3336 7.99989 11.3335ZM7.99989 6.00022C7.91279 5.99915 7.82675 5.98101 7.74664 5.94683C7.6658 5.91313 7.59136 5.86579 7.52656 5.80688C7.46445 5.74482 7.41536 5.67099 7.38216 5.58971C7.34897 5.50843 7.33233 5.42134 7.33322 5.33355C7.33079 5.2461 7.34908 5.15932 7.38661 5.0803C7.42031 4.99947 7.46765 4.92502 7.52656 4.86022C7.59028 4.79991 7.66498 4.75238 7.74661 4.72022C7.90879 4.65316 8.09094 4.65316 8.25312 4.72022C8.33467 4.75253 8.40934 4.80004 8.47317 4.86022C8.59488 4.98805 8.66393 5.15706 8.66656 5.33355C8.66741 5.42134 8.65075 5.50841 8.61755 5.58968C8.58435 5.67095 8.53527 5.74478 8.4732 5.80686C8.41112 5.86893 8.33729 5.91801 8.25602 5.95121C8.17475 5.98441 8.08767 6.00107 7.99989 6.00022Z" fill="#F6F9FE"/>
</svg>
