<svg width="23" height="24" viewBox="0 0 23 24" fill="none" xmlns="http://www.w3.org/2000/svg">
<g clip-path="url(#clip0_2026_41)">
<path d="M21.16 0.730774H1.84C0.823796 0.730774 0 1.53873 0 2.53539V21.4839C0 22.4805 0.823796 23.2885 1.84 23.2885H21.16C22.1762 23.2885 23 22.4805 23 21.4839V2.53539C23 1.53873 22.1762 0.730774 21.16 0.730774Z" fill="url(#paint0_radial_2026_41)"/>
<path d="M21.16 0.730774H1.84C0.823796 0.730774 0 1.53873 0 2.53539V21.4839C0 22.4805 0.823796 23.2885 1.84 23.2885H21.16C22.1762 23.2885 23 22.4805 23 21.4839V2.53539C23 1.53873 22.1762 0.730774 21.16 0.730774Z" fill="url(#paint1_radial_2026_41)" fill-opacity="0.57"/>
<path d="M21.16 0.730774H1.84C0.823796 0.730774 0 1.53873 0 2.53539V21.4839C0 22.4805 0.823796 23.2885 1.84 23.2885H21.16C22.1762 23.2885 23 22.4805 23 21.4839V2.53539C23 1.53873 22.1762 0.730774 21.16 0.730774Z" fill="url(#paint2_radial_2026_41)" fill-opacity="0.68"/>
<path d="M21.16 0.730774H1.84C0.823796 0.730774 0 1.53873 0 2.53539V21.4839C0 22.4805 0.823796 23.2885 1.84 23.2885H21.16C22.1762 23.2885 23 22.4805 23 21.4839V2.53539C23 1.53873 22.1762 0.730774 21.16 0.730774Z" fill="url(#paint3_radial_2026_41)" fill-opacity="0.08"/>
<path d="M21.16 0.730774H1.84C0.823796 0.730774 0 1.53873 0 2.53539V21.4839C0 22.4805 0.823796 23.2885 1.84 23.2885H21.16C22.1762 23.2885 23 22.4805 23 21.4839V2.53539C23 1.53873 22.1762 0.730774 21.16 0.730774Z" fill="url(#paint4_linear_2026_41)" fill-opacity="0.03"/>
<path d="M8.096 19.9048V12.9119L14.835 19.9048H18.584V19.7244L10.833 11.7615L17.986 4.20467V4.11444H14.214L8.096 10.7915V4.11444H5.06V19.9048H8.096Z" fill="white"/>
</g>
<defs>
<radialGradient id="paint0_radial_2026_41" cx="0" cy="0" r="1" gradientUnits="userSpaceOnUse" gradientTransform="translate(-17.8038 11.5264) rotate(140.718) scale(39.25 47.1905)">
<stop stop-color="#2F80F2"/>
<stop offset="0.999657" stop-color="#A942B5"/>
</radialGradient>
<radialGradient id="paint1_radial_2026_41" cx="0" cy="0" r="1" gradientUnits="userSpaceOnUse" gradientTransform="translate(-0.372547 1.08211) rotate(45.7649) scale(36.2284 37.989)">
<stop stop-color="#45F9DE"/>
<stop offset="1" stop-color="#A942B5" stop-opacity="0"/>
</radialGradient>
<radialGradient id="paint2_radial_2026_41" cx="0" cy="0" r="1" gradientUnits="userSpaceOnUse" gradientTransform="translate(-22.77 -10.7147) rotate(180) scale(22.09 11.1568)">
<stop stop-color="#E957C5"/>
<stop offset="1" stop-color="#A942B5" stop-opacity="0"/>
</radialGradient>
<radialGradient id="paint3_radial_2026_41" cx="0" cy="0" r="1" gradientUnits="userSpaceOnUse" gradientTransform="translate(-20.5185 2.11569) rotate(120.421) scale(13.0689 19.7819)">
<stop stop-opacity="0.184878"/>
<stop offset="1" stop-color="#101010"/>
</radialGradient>
<linearGradient id="paint4_linear_2026_41" x1="21.6746" y1="14.0322" x2="0.238838" y2="0.356411" gradientUnits="userSpaceOnUse">
<stop stop-color="white" stop-opacity="0.184878"/>
<stop offset="1" stop-color="white"/>
</linearGradient>
<clipPath id="clip0_2026_41">
<rect width="23" height="22.5577" fill="white" transform="translate(0 0.730774)"/>
</clipPath>
</defs>
</svg>
