<svg width="25" height="24" viewBox="0 0 25 24" fill="currentColor" xmlns="http://www.w3.org/2000/svg">
<path d="M17.625 18C17.3598 18 17.1054 17.8946 16.9179 17.7071C16.7304 17.5196 16.625 17.2652 16.625 17V8H7.625C7.35978 8 7.10543 7.89464 6.91789 7.70711C6.73036 7.51957 6.625 7.26522 6.625 7C6.625 6.73478 6.73036 6.48043 6.91789 6.29289C7.10543 6.10536 7.35978 6 7.625 6H17.625C17.8902 6 18.1446 6.10536 18.3321 6.29289C18.5196 6.48043 18.625 6.73478 18.625 7V17C18.625 17.2652 18.5196 17.5196 18.3321 17.7071C18.1446 17.8946 17.8902 18 17.625 18Z" fill="currentColor"/>
<path d="M7.62479 18.0013C7.42704 18.0013 7.23374 17.9426 7.06933 17.8327C6.90492 17.7228 6.77678 17.5667 6.70111 17.384C6.62544 17.2013 6.60564 17.0002 6.6442 16.8063C6.68277 16.6123 6.77798 16.4341 6.91779 16.2943L16.9178 6.2943C17.1059 6.10959 17.3593 6.00663 17.6229 6.00782C17.8865 6.00902 18.139 6.11427 18.3254 6.30067C18.5118 6.48708 18.6171 6.73956 18.6183 7.00317C18.6195 7.26679 18.5165 7.52021 18.3318 7.7083L8.33179 17.7083C8.23906 17.8013 8.12886 17.8751 8.00753 17.9254C7.8862 17.9756 7.75612 18.0014 7.62479 18.0013Z" fill="currentColor"/>
</svg>
