<svg width="16" height="16" viewBox="0 0 16 16" fill="currentColor" xmlns="http://www.w3.org/2000/svg">
    <path d="M14.0001 1.33398H10.0001C9.82328 1.33398 9.65371 1.40422 9.52869 1.52925C9.40366 1.65427 9.33342 1.82384 9.33342 2.00065C9.33342 2.17746 9.40366 2.34703 9.52869 2.47206C9.65371 2.59708 9.82328 2.66732 10.0001 2.66732H12.3907L5.52876 9.52929C5.46628 9.59106 5.41663 9.66457 5.38265 9.74559C5.34868 9.82662 5.33107 9.91356 5.33081 10.0014C5.33056 10.0893 5.34768 10.1763 5.38118 10.2575C5.41469 10.3388 5.46392 10.4126 5.52604 10.4747C5.58816 10.5368 5.66196 10.586 5.74317 10.6195C5.82439 10.6531 5.91143 10.6702 5.99929 10.6699C6.08715 10.6697 6.17409 10.6521 6.25511 10.6181C6.33614 10.5841 6.40965 10.5345 6.47142 10.472L13.3334 3.61002V6.00065C13.3334 6.17746 13.4037 6.34703 13.5287 6.47206C13.6537 6.59708 13.8233 6.66732 14.0001 6.66732C14.1769 6.66732 14.3465 6.59708 14.4715 6.47206C14.5965 6.34703 14.6668 6.17746 14.6668 6.00065V2.00065C14.6668 1.91309 14.6496 1.82638 14.6161 1.74547C14.5826 1.66456 14.5335 1.59105 14.4716 1.52913C14.4097 1.46722 14.3362 1.41811 14.2553 1.38463C14.1744 1.35114 14.0877 1.33393 14.0001 1.33398Z" fill="currentColor" />
    <path d="M10.6666 14.6673H3.33325C2.803 14.6667 2.29463 14.4558 1.91968 14.0809C1.54473 13.7059 1.33383 13.1976 1.33325 12.6673V5.33398C1.33383 4.80373 1.54473 4.29536 1.91968 3.92041C2.29463 3.54546 2.803 3.33456 3.33325 3.33398H8.11971C8.29652 3.33398 8.46609 3.40422 8.59112 3.52925C8.71614 3.65427 8.78638 3.82384 8.78638 4.00065C8.78638 4.17746 8.71614 4.34703 8.59112 4.47206C8.46609 4.59708 8.29652 4.66732 8.11971 4.66732H3.33325C3.15648 4.66744 2.98698 4.73771 2.86198 4.86271C2.73698 4.98771 2.6667 5.15721 2.66659 5.33398V12.6673C2.66671 12.8441 2.73698 13.0136 2.86198 13.1386C2.98698 13.2636 3.15648 13.3339 3.33325 13.334H10.6666C10.8434 13.3339 11.0129 13.2636 11.1379 13.1386C11.2629 13.0136 11.3331 12.8441 11.3333 12.6673V7.8802C11.3333 7.70339 11.4035 7.53382 11.5285 7.4088C11.6535 7.28377 11.8231 7.21354 11.9999 7.21354C12.1767 7.21354 12.3463 7.28377 12.4713 7.4088C12.5963 7.53382 12.6666 7.70339 12.6666 7.8802V12.6673C12.666 13.1976 12.4551 13.7059 12.0802 14.0809C11.7052 14.4558 11.1968 14.6667 10.6666 14.6673Z" fill="currentColor" />
</svg>