<svg width="313" height="28" viewBox="0 0 313 28" fill="none" xmlns="http://www.w3.org/2000/svg">
<g clip-path="url(#clip0_6324_2412)">
<path d="M102.276 9.22496C101.417 8.3833 100.377 7.74851 99.2361 7.36877C98.0949 6.98903 96.8822 6.87433 95.69 7.0334C94.4979 7.19247 93.3576 7.62111 92.3559 8.28678C91.3542 8.95244 90.5173 9.83763 89.9089 10.8751C89.2232 12.0854 88.8668 13.4544 88.8752 14.8454C88.8567 15.8664 89.0491 16.8802 89.4403 17.8235C89.8315 18.7667 90.4131 19.6191 91.1488 20.3273C91.8779 21.0645 92.7494 21.6456 93.7102 22.0353C94.6711 22.4249 95.7012 22.615 96.7379 22.5938C98.2843 22.5872 99.7943 22.1237 101.078 21.2618C102.362 20.3998 103.363 19.1777 103.955 17.7489C104.546 16.3201 104.703 14.7484 104.404 13.231C104.106 11.7136 103.366 10.3182 102.277 9.22009L102.276 9.22496ZM102.191 18.0078C101.646 18.9675 100.851 19.7607 99.8891 20.3022C98.9128 20.8613 97.8058 21.1519 96.6808 21.1443C95.8539 21.1468 95.0348 20.9853 94.2709 20.669C93.5069 20.3527 92.8133 19.888 92.2302 19.3017C91.6472 18.7155 91.1862 18.0194 90.874 17.2537C90.5619 16.488 90.4048 15.6681 90.4118 14.8413C90.3966 13.7035 90.6825 12.582 91.2407 11.5904C91.6501 10.8668 92.1995 10.2318 92.8568 9.72265C93.5141 9.21345 94.2661 8.84018 95.0692 8.62462C95.8722 8.40905 96.7101 8.3555 97.534 8.46706C98.3579 8.57862 99.1514 8.85307 99.8682 9.27442C100.841 9.82053 101.648 10.6199 102.203 11.5877C102.758 12.5555 103.04 13.6555 103.02 14.7709C103.033 15.9042 102.747 17.0209 102.191 18.0085V18.0078ZM118.533 18.0078V18.051C118.539 18.6603 118.411 19.2635 118.157 19.8175C117.903 20.3714 117.529 20.8623 117.063 21.2551C115.998 22.1215 114.653 22.5696 113.28 22.5151C112.195 22.5237 111.12 22.3054 110.123 21.8743C109.145 21.4397 108.257 20.8238 107.508 20.0591L108.589 19.0143C109.193 19.6507 109.921 20.1571 110.727 20.5023C111.534 20.8475 112.403 21.0242 113.28 21.0217C115.509 21.0217 117.02 19.8258 117.02 18.0537V18.0105C117.045 17.6843 116.992 17.3568 116.864 17.0556C116.736 16.7544 116.538 16.4885 116.285 16.2803C115.309 15.6285 114.203 15.1983 113.043 15.0203C111.734 14.8326 110.485 14.3508 109.389 13.6111C108.998 13.3025 108.687 12.9051 108.48 12.452C108.273 11.9988 108.177 11.5029 108.2 11.0053V10.9628C108.195 10.437 108.314 9.91728 108.549 9.44645C108.775 8.96502 109.099 8.53592 109.5 8.1864C110.436 7.43242 111.607 7.03172 112.808 7.05451C113.686 7.06363 114.556 7.22266 115.38 7.52469C116.16 7.83276 116.888 8.25763 117.54 8.78474L116.589 9.93753C115.524 9.05543 114.188 8.56541 112.805 8.5493C111.974 8.52304 111.161 8.79481 110.514 9.31551C110.268 9.51451 110.069 9.765 109.931 10.0493C109.793 10.3336 109.719 10.6447 109.714 10.9608V11.0033C109.689 11.2754 109.733 11.5494 109.843 11.7998C109.952 12.0501 110.124 12.2685 110.341 12.4347C111.264 13.027 112.304 13.4131 113.39 13.5666C114.792 13.7832 116.124 14.3244 117.281 15.147C117.696 15.4947 118.025 15.9338 118.243 16.43C118.46 16.9262 118.56 17.466 118.534 18.0071L118.533 18.0078ZM84.3846 10.5094C83.5873 9.27426 82.3931 8.34759 80.9986 7.88202C79.4217 7.45023 77.7867 7.26853 76.1534 7.34358H73.0684V22.2247H77.805C79.291 22.2991 80.7736 22.0223 82.1326 21.4167C83.1952 20.8434 84.0669 19.9717 84.6402 18.9091C85.301 17.7035 85.6332 16.3453 85.6035 14.9708C85.6467 13.3959 85.2226 11.8435 84.3846 10.5094ZM83.1308 18.464C82.5016 19.404 81.5686 20.0994 80.4881 20.4338C79.0857 20.7514 77.6471 20.8798 76.2106 20.8156H74.4894V8.80007H75.5447C77.0915 8.73777 78.6397 8.88088 80.1489 9.22566C81.3329 9.55857 82.3614 10.2986 83.0535 11.3153C83.7699 12.4047 84.1335 13.6884 84.0948 14.9917C84.1313 16.2189 83.7955 17.4285 83.1315 18.4612L83.1308 18.464ZM40.7109 11.5863C40.1457 12.573 39.857 13.6938 39.875 14.8308C39.8534 15.676 40.0086 16.5163 40.3306 17.2981C40.6527 18.0798 41.1345 18.7856 41.7452 19.3702C42.3683 19.9735 43.1063 20.4455 43.9152 20.7583C44.7242 21.0711 45.5878 21.2182 46.4546 21.191C47.4547 21.2047 48.4447 20.9911 49.3503 20.5666C50.2558 20.142 51.0532 19.5174 51.6822 18.7398L52.858 19.6321C52.1208 20.5731 51.1687 21.3236 50.0816 21.8207C48.9138 22.3485 47.644 22.612 46.3627 22.5925C45.2065 22.6474 44.0527 22.4424 42.9863 21.9925C41.9198 21.5426 40.9678 20.8594 40.2003 19.9929C38.9371 18.5212 38.2636 16.6339 38.3098 14.695C38.2879 13.6694 38.4807 12.6507 38.8758 11.7041C39.271 10.7575 39.8597 9.90404 40.6043 9.19849C41.3627 8.46199 42.2613 7.88522 43.2467 7.50235C44.2321 7.11948 45.2844 6.93828 46.3411 6.96952C47.6414 6.95095 48.9285 7.23222 50.1025 7.79147C51.198 8.32433 52.1446 9.11997 52.858 10.1075L51.6822 11.0067C51.0682 10.1917 50.2697 9.53379 49.3523 9.08704C48.418 8.6461 47.3957 8.42363 46.3627 8.43647C45.2065 8.42682 44.0681 8.7221 43.0624 9.29253C42.0861 9.82983 41.2735 10.6215 40.7109 11.5835V11.5863ZM67.7893 7.34358H69.2339V16.2908C69.2339 17.9551 68.5728 19.5512 67.3959 20.728C66.2191 21.9049 64.623 22.566 62.9587 22.566C61.2944 22.566 59.6983 21.9049 58.5215 20.728C57.3446 19.5512 56.6835 17.9551 56.6835 16.2908V7.3408H58.1211V16.2908C58.1211 17.5728 58.6305 18.8024 59.537 19.709C60.4436 20.6155 61.6731 21.1248 62.9552 21.1248C64.2373 21.1248 65.4669 20.6155 66.3734 19.709C67.28 18.8024 67.7893 17.5728 67.7893 16.2908V7.34358Z" fill="#F6F9FE"/>
</g>
<g clip-path="url(#clip1_6324_2412)">
<path d="M23.8953 4.10535C21.6053 1.81949 18.5937 0.398275 15.3734 0.0838132C12.1532 -0.230649 8.92356 0.581091 6.23465 2.38076C3.54575 4.18042 1.56394 6.8567 0.626833 9.95365C-0.310277 13.0506 -0.14472 16.3767 1.0953 19.3652C2.33532 22.3538 4.57309 24.8201 7.42742 26.3438C10.2817 27.8675 13.5761 28.3545 16.7491 27.7218C19.9222 27.0891 22.7778 25.3758 24.8295 22.8738C26.8811 20.3719 28.0019 17.236 28.0009 14.0003C27.9967 10.2884 26.5201 6.72982 23.8953 4.10535ZM13.2755 26.5243C10.0861 26.3293 7.09118 24.9248 4.90176 22.5973C2.71233 20.2698 1.49331 17.1947 1.49331 13.9993C1.49331 10.8038 2.71233 7.72876 4.90176 5.40129C7.09118 3.07382 10.0861 1.66929 13.2755 1.47423V6.22229C11.3369 6.4017 9.53526 7.29868 8.2236 8.73737C6.91194 10.1761 6.18487 12.0527 6.18487 13.9996C6.18487 15.9465 6.91194 17.8232 8.2236 19.2619C9.53526 20.7006 11.3369 21.5975 13.2755 21.7769V26.5243ZM13.9999 20.3634C12.5258 20.3647 11.0968 19.8547 9.95664 18.9204C8.81643 17.9861 8.03553 16.6852 7.74704 15.2396C7.45854 13.794 7.68033 12.293 8.37456 10.9926C9.06879 9.6922 10.1925 8.67281 11.5542 8.10817C12.9159 7.54353 14.4312 7.4686 15.8419 7.89616C17.2527 8.32373 18.4715 9.2273 19.2906 10.4529C20.1097 11.6785 20.4784 13.1503 20.334 14.6173C20.1895 16.0843 19.5407 17.4558 18.4982 18.4981C17.3056 19.6916 15.6878 20.3625 14.0006 20.3634H13.9999ZM23.1186 22.6072C20.9231 24.9355 17.921 26.337 14.7263 26.525V21.7769C16.6649 21.5975 18.4665 20.7006 19.7782 19.2619C21.0898 17.8232 21.8169 15.9465 21.8169 13.9996C21.8169 12.0527 21.0898 10.1761 19.7782 8.73737C18.4665 7.29868 16.6649 6.4017 14.7263 6.22229V1.47423C17.1092 1.61503 19.4025 2.43263 21.3371 3.83103C23.2716 5.22944 24.7672 7.15066 25.6483 9.36921C26.5293 11.5878 26.7593 14.0116 26.3113 16.3563C25.8632 18.701 24.7557 20.8692 23.1186 22.6065V22.6072Z" fill="url(#paint0_linear_6324_2412)"/>
</g>
<line x1="129.033" y1="7.5" x2="129.033" y2="20.5" stroke="#F6F9FE" stroke-linecap="round"/>
<path d="M144.383 7.864C145.715 7.864 146.879 8.128 147.875 8.656C148.871 9.184 149.639 9.928 150.179 10.888C150.731 11.836 151.007 12.934 151.007 14.182C151.007 15.418 150.731 16.516 150.179 17.476C149.639 18.436 148.865 19.18 147.857 19.708C146.861 20.236 145.703 20.5 144.383 20.5H139.649V7.864H144.383ZM144.185 17.836C145.349 17.836 146.255 17.518 146.903 16.882C147.551 16.246 147.875 15.346 147.875 14.182C147.875 13.018 147.551 12.112 146.903 11.464C146.255 10.816 145.349 10.492 144.185 10.492H142.727V17.836H144.185ZM152.115 15.46C152.115 14.428 152.307 13.522 152.691 12.742C153.087 11.962 153.621 11.362 154.293 10.942C154.965 10.522 155.715 10.312 156.543 10.312C157.251 10.312 157.869 10.456 158.397 10.744C158.937 11.032 159.351 11.41 159.639 11.878V10.456H162.717V20.5H159.639V19.078C159.339 19.546 158.919 19.924 158.379 20.212C157.851 20.5 157.233 20.644 156.525 20.644C155.709 20.644 154.965 20.434 154.293 20.014C153.621 19.582 153.087 18.976 152.691 18.196C152.307 17.404 152.115 16.492 152.115 15.46ZM159.639 15.478C159.639 14.71 159.423 14.104 158.991 13.66C158.571 13.216 158.055 12.994 157.443 12.994C156.831 12.994 156.309 13.216 155.877 13.66C155.457 14.092 155.247 14.692 155.247 15.46C155.247 16.228 155.457 16.84 155.877 17.296C156.309 17.74 156.831 17.962 157.443 17.962C158.055 17.962 158.571 17.74 158.991 17.296C159.423 16.852 159.639 16.246 159.639 15.478ZM169.03 20.644C168.154 20.644 167.374 20.494 166.69 20.194C166.006 19.894 165.466 19.486 165.07 18.97C164.674 18.442 164.452 17.854 164.404 17.206H167.446C167.482 17.554 167.644 17.836 167.932 18.052C168.22 18.268 168.574 18.376 168.994 18.376C169.378 18.376 169.672 18.304 169.876 18.16C170.092 18.004 170.2 17.806 170.2 17.566C170.2 17.278 170.05 17.068 169.75 16.936C169.45 16.792 168.964 16.636 168.292 16.468C167.572 16.3 166.972 16.126 166.492 15.946C166.012 15.754 165.598 15.46 165.25 15.064C164.902 14.656 164.728 14.11 164.728 13.426C164.728 12.85 164.884 12.328 165.196 11.86C165.52 11.38 165.988 11.002 166.6 10.726C167.224 10.45 167.962 10.312 168.814 10.312C170.074 10.312 171.064 10.624 171.784 11.248C172.516 11.872 172.936 12.7 173.044 13.732H170.2C170.152 13.384 169.996 13.108 169.732 12.904C169.48 12.7 169.144 12.598 168.724 12.598C168.364 12.598 168.088 12.67 167.896 12.814C167.704 12.946 167.608 13.132 167.608 13.372C167.608 13.66 167.758 13.876 168.058 14.02C168.37 14.164 168.85 14.308 169.498 14.452C170.242 14.644 170.848 14.836 171.316 15.028C171.784 15.208 172.192 15.508 172.54 15.928C172.9 16.336 173.086 16.888 173.098 17.584C173.098 18.172 172.93 18.7 172.594 19.168C172.27 19.624 171.796 19.984 171.172 20.248C170.56 20.512 169.846 20.644 169.03 20.644ZM181.155 10.348C182.307 10.348 183.231 10.732 183.927 11.5C184.623 12.256 184.971 13.3 184.971 14.632V20.5H181.911V15.046C181.911 14.374 181.737 13.852 181.389 13.48C181.041 13.108 180.573 12.922 179.985 12.922C179.397 12.922 178.929 13.108 178.581 13.48C178.233 13.852 178.059 14.374 178.059 15.046V20.5H174.981V7.18H178.059V11.806C178.371 11.362 178.797 11.008 179.337 10.744C179.877 10.48 180.483 10.348 181.155 10.348ZM190.188 11.878C190.476 11.41 190.89 11.032 191.43 10.744C191.97 10.456 192.588 10.312 193.284 10.312C194.112 10.312 194.862 10.522 195.534 10.942C196.206 11.362 196.734 11.962 197.118 12.742C197.514 13.522 197.712 14.428 197.712 15.46C197.712 16.492 197.514 17.404 197.118 18.196C196.734 18.976 196.206 19.582 195.534 20.014C194.862 20.434 194.112 20.644 193.284 20.644C192.576 20.644 191.958 20.506 191.43 20.23C190.902 19.942 190.488 19.564 190.188 19.096V20.5H187.11V7.18H190.188V11.878ZM194.58 15.46C194.58 14.692 194.364 14.092 193.932 13.66C193.512 13.216 192.99 12.994 192.366 12.994C191.754 12.994 191.232 13.216 190.8 13.66C190.38 14.104 190.17 14.71 190.17 15.478C190.17 16.246 190.38 16.852 190.8 17.296C191.232 17.74 191.754 17.962 192.366 17.962C192.978 17.962 193.5 17.74 193.932 17.296C194.364 16.84 194.58 16.228 194.58 15.46ZM203.899 20.644C202.915 20.644 202.027 20.434 201.235 20.014C200.455 19.594 199.837 18.994 199.381 18.214C198.937 17.434 198.715 16.522 198.715 15.478C198.715 14.446 198.943 13.54 199.399 12.76C199.855 11.968 200.479 11.362 201.271 10.942C202.063 10.522 202.951 10.312 203.935 10.312C204.919 10.312 205.807 10.522 206.599 10.942C207.391 11.362 208.015 11.968 208.471 12.76C208.927 13.54 209.155 14.446 209.155 15.478C209.155 16.51 208.921 17.422 208.453 18.214C207.997 18.994 207.367 19.594 206.563 20.014C205.771 20.434 204.883 20.644 203.899 20.644ZM203.899 17.98C204.487 17.98 204.985 17.764 205.393 17.332C205.813 16.9 206.023 16.282 206.023 15.478C206.023 14.674 205.819 14.056 205.411 13.624C205.015 13.192 204.523 12.976 203.935 12.976C203.335 12.976 202.837 13.192 202.441 13.624C202.045 14.044 201.847 14.662 201.847 15.478C201.847 16.282 202.039 16.9 202.423 17.332C202.819 17.764 203.311 17.98 203.899 17.98ZM210.176 15.46C210.176 14.428 210.368 13.522 210.752 12.742C211.148 11.962 211.682 11.362 212.354 10.942C213.026 10.522 213.776 10.312 214.604 10.312C215.312 10.312 215.93 10.456 216.458 10.744C216.998 11.032 217.412 11.41 217.7 11.878V10.456H220.778V20.5H217.7V19.078C217.4 19.546 216.98 19.924 216.44 20.212C215.912 20.5 215.294 20.644 214.586 20.644C213.77 20.644 213.026 20.434 212.354 20.014C211.682 19.582 211.148 18.976 210.752 18.196C210.368 17.404 210.176 16.492 210.176 15.46ZM217.7 15.478C217.7 14.71 217.484 14.104 217.052 13.66C216.632 13.216 216.116 12.994 215.504 12.994C214.892 12.994 214.37 13.216 213.938 13.66C213.518 14.092 213.308 14.692 213.308 15.46C213.308 16.228 213.518 16.84 213.938 17.296C214.37 17.74 214.892 17.962 215.504 17.962C216.116 17.962 216.632 17.74 217.052 17.296C217.484 16.852 217.7 16.246 217.7 15.478ZM226.083 12.13C226.443 11.578 226.893 11.146 227.433 10.834C227.973 10.51 228.573 10.348 229.233 10.348V13.606H228.387C227.619 13.606 227.043 13.774 226.659 14.11C226.275 14.434 226.083 15.01 226.083 15.838V20.5H223.005V10.456H226.083V12.13ZM230.092 15.46C230.092 14.428 230.284 13.522 230.668 12.742C231.064 11.962 231.598 11.362 232.27 10.942C232.942 10.522 233.692 10.312 234.52 10.312C235.18 10.312 235.78 10.45 236.32 10.726C236.872 11.002 237.304 11.374 237.616 11.842V7.18H240.694V20.5H237.616V19.06C237.328 19.54 236.914 19.924 236.374 20.212C235.846 20.5 235.228 20.644 234.52 20.644C233.692 20.644 232.942 20.434 232.27 20.014C231.598 19.582 231.064 18.976 230.668 18.196C230.284 17.404 230.092 16.492 230.092 15.46ZM237.616 15.478C237.616 14.71 237.4 14.104 236.968 13.66C236.548 13.216 236.032 12.994 235.42 12.994C234.808 12.994 234.286 13.216 233.854 13.66C233.434 14.092 233.224 14.692 233.224 15.46C233.224 16.228 233.434 16.84 233.854 17.296C234.286 17.74 234.808 17.962 235.42 17.962C236.032 17.962 236.548 17.74 236.968 17.296C237.4 16.852 237.616 16.246 237.616 15.478Z" fill="#F6F9FE"/>
<defs>
<linearGradient id="paint0_linear_6324_2412" x1="4.11148" y1="23.9076" x2="23.8893" y2="4.1303" gradientUnits="userSpaceOnUse">
<stop offset="0.005" stop-color="#4E9DF7"/>
<stop offset="0.996" stop-color="#6CD8F9"/>
<stop offset="1" stop-color="#6DD9FA"/>
</linearGradient>
<clipPath id="clip0_6324_2412">
<rect width="80.2231" height="15.6327" fill="white" transform="translate(38.3105 6.96582)"/>
</clipPath>
<clipPath id="clip1_6324_2412">
<rect width="28" height="28" fill="white"/>
</clipPath>
</defs>
</svg>
