<svg width="239" height="28" viewBox="0 0 239 28" fill="none" xmlns="http://www.w3.org/2000/svg">
    <path d="M140.85 7.364C142.182 7.364 143.346 7.628 144.342 8.156C145.338 8.684 146.106 9.428 146.646 10.388C147.198 11.336 147.474 12.434 147.474 13.682C147.474 14.918 147.198 16.016 146.646 16.976C146.106 17.936 145.332 18.68 144.324 19.208C143.328 19.736 142.17 20 140.85 20H136.116V7.364H140.85ZM140.652 17.336C141.816 17.336 142.722 17.018 143.37 16.382C144.018 15.746 144.342 14.846 144.342 13.682C144.342 12.518 144.018 11.612 143.37 10.964C142.722 10.316 141.816 9.992 140.652 9.992H139.194V17.336H140.652ZM148.582 14.96C148.582 13.928 148.774 13.022 149.158 12.242C149.554 11.462 150.088 10.862 150.76 10.442C151.432 10.022 152.182 9.812 153.01 9.812C153.718 9.812 154.336 9.956 154.864 10.244C155.404 10.532 155.818 10.91 156.106 11.378V9.956H159.184V20H156.106V18.578C155.806 19.046 155.386 19.424 154.846 19.712C154.318 20 153.7 20.144 152.992 20.144C152.176 20.144 151.432 19.934 150.76 19.514C150.088 19.082 149.554 18.476 149.158 17.696C148.774 16.904 148.582 15.992 148.582 14.96ZM156.106 14.978C156.106 14.21 155.89 13.604 155.458 13.16C155.038 12.716 154.522 12.494 153.91 12.494C153.298 12.494 152.776 12.716 152.344 13.16C151.924 13.592 151.714 14.192 151.714 14.96C151.714 15.728 151.924 16.34 152.344 16.796C152.776 17.24 153.298 17.462 153.91 17.462C154.522 17.462 155.038 17.24 155.458 16.796C155.89 16.352 156.106 15.746 156.106 14.978ZM165.497 20.144C164.621 20.144 163.841 19.994 163.157 19.694C162.473 19.394 161.933 18.986 161.537 18.47C161.141 17.942 160.919 17.354 160.871 16.706H163.913C163.949 17.054 164.111 17.336 164.399 17.552C164.687 17.768 165.041 17.876 165.461 17.876C165.845 17.876 166.139 17.804 166.343 17.66C166.559 17.504 166.667 17.306 166.667 17.066C166.667 16.778 166.517 16.568 166.217 16.436C165.917 16.292 165.431 16.136 164.759 15.968C164.039 15.8 163.439 15.626 162.959 15.446C162.479 15.254 162.065 14.96 161.717 14.564C161.369 14.156 161.195 13.61 161.195 12.926C161.195 12.35 161.351 11.828 161.663 11.36C161.987 10.88 162.455 10.502 163.067 10.226C163.691 9.95 164.429 9.812 165.281 9.812C166.541 9.812 167.531 10.124 168.251 10.748C168.983 11.372 169.403 12.2 169.511 13.232H166.667C166.619 12.884 166.463 12.608 166.199 12.404C165.947 12.2 165.611 12.098 165.191 12.098C164.831 12.098 164.555 12.17 164.363 12.314C164.171 12.446 164.075 12.632 164.075 12.872C164.075 13.16 164.225 13.376 164.525 13.52C164.837 13.664 165.317 13.808 165.965 13.952C166.709 14.144 167.315 14.336 167.783 14.528C168.251 14.708 168.659 15.008 169.007 15.428C169.367 15.836 169.553 16.388 169.565 17.084C169.565 17.672 169.397 18.2 169.061 18.668C168.737 19.124 168.263 19.484 167.639 19.748C167.027 20.012 166.313 20.144 165.497 20.144ZM177.622 9.848C178.774 9.848 179.698 10.232 180.394 11C181.09 11.756 181.438 12.8 181.438 14.132V20H178.378V14.546C178.378 13.874 178.204 13.352 177.856 12.98C177.508 12.608 177.04 12.422 176.452 12.422C175.864 12.422 175.396 12.608 175.048 12.98C174.7 13.352 174.526 13.874 174.526 14.546V20H171.448V6.68H174.526V11.306C174.838 10.862 175.264 10.508 175.804 10.244C176.344 9.98 176.95 9.848 177.622 9.848ZM186.655 11.378C186.943 10.91 187.357 10.532 187.897 10.244C188.437 9.956 189.055 9.812 189.751 9.812C190.579 9.812 191.329 10.022 192.001 10.442C192.673 10.862 193.201 11.462 193.585 12.242C193.981 13.022 194.179 13.928 194.179 14.96C194.179 15.992 193.981 16.904 193.585 17.696C193.201 18.476 192.673 19.082 192.001 19.514C191.329 19.934 190.579 20.144 189.751 20.144C189.043 20.144 188.425 20.006 187.897 19.73C187.369 19.442 186.955 19.064 186.655 18.596V20H183.577V6.68H186.655V11.378ZM191.047 14.96C191.047 14.192 190.831 13.592 190.399 13.16C189.979 12.716 189.457 12.494 188.833 12.494C188.221 12.494 187.699 12.716 187.267 13.16C186.847 13.604 186.637 14.21 186.637 14.978C186.637 15.746 186.847 16.352 187.267 16.796C187.699 17.24 188.221 17.462 188.833 17.462C189.445 17.462 189.967 17.24 190.399 16.796C190.831 16.34 191.047 15.728 191.047 14.96ZM200.366 20.144C199.382 20.144 198.494 19.934 197.702 19.514C196.922 19.094 196.304 18.494 195.848 17.714C195.404 16.934 195.182 16.022 195.182 14.978C195.182 13.946 195.41 13.04 195.866 12.26C196.322 11.468 196.946 10.862 197.738 10.442C198.53 10.022 199.418 9.812 200.402 9.812C201.386 9.812 202.274 10.022 203.066 10.442C203.858 10.862 204.482 11.468 204.938 12.26C205.394 13.04 205.622 13.946 205.622 14.978C205.622 16.01 205.388 16.922 204.92 17.714C204.464 18.494 203.834 19.094 203.03 19.514C202.238 19.934 201.35 20.144 200.366 20.144ZM200.366 17.48C200.954 17.48 201.452 17.264 201.86 16.832C202.28 16.4 202.49 15.782 202.49 14.978C202.49 14.174 202.286 13.556 201.878 13.124C201.482 12.692 200.99 12.476 200.402 12.476C199.802 12.476 199.304 12.692 198.908 13.124C198.512 13.544 198.314 14.162 198.314 14.978C198.314 15.782 198.506 16.4 198.89 16.832C199.286 17.264 199.778 17.48 200.366 17.48ZM206.643 14.96C206.643 13.928 206.835 13.022 207.219 12.242C207.615 11.462 208.149 10.862 208.821 10.442C209.493 10.022 210.243 9.812 211.071 9.812C211.779 9.812 212.397 9.956 212.925 10.244C213.465 10.532 213.879 10.91 214.167 11.378V9.956H217.245V20H214.167V18.578C213.867 19.046 213.447 19.424 212.907 19.712C212.379 20 211.761 20.144 211.053 20.144C210.237 20.144 209.493 19.934 208.821 19.514C208.149 19.082 207.615 18.476 207.219 17.696C206.835 16.904 206.643 15.992 206.643 14.96ZM214.167 14.978C214.167 14.21 213.951 13.604 213.519 13.16C213.099 12.716 212.583 12.494 211.971 12.494C211.359 12.494 210.837 12.716 210.405 13.16C209.985 13.592 209.775 14.192 209.775 14.96C209.775 15.728 209.985 16.34 210.405 16.796C210.837 17.24 211.359 17.462 211.971 17.462C212.583 17.462 213.099 17.24 213.519 16.796C213.951 16.352 214.167 15.746 214.167 14.978ZM222.549 11.63C222.909 11.078 223.359 10.646 223.899 10.334C224.439 10.01 225.039 9.848 225.699 9.848V13.106H224.853C224.085 13.106 223.509 13.274 223.125 13.61C222.741 13.934 222.549 14.51 222.549 15.338V20H219.471V9.956H222.549V11.63ZM226.559 14.96C226.559 13.928 226.751 13.022 227.135 12.242C227.531 11.462 228.065 10.862 228.737 10.442C229.409 10.022 230.159 9.812 230.987 9.812C231.647 9.812 232.247 9.95 232.787 10.226C233.339 10.502 233.771 10.874 234.083 11.342V6.68H237.161V20H234.083V18.56C233.795 19.04 233.381 19.424 232.841 19.712C232.313 20 231.695 20.144 230.987 20.144C230.159 20.144 229.409 19.934 228.737 19.514C228.065 19.082 227.531 18.476 227.135 17.696C226.751 16.904 226.559 15.992 226.559 14.96ZM234.083 14.978C234.083 14.21 233.867 13.604 233.435 13.16C233.015 12.716 232.499 12.494 231.887 12.494C231.275 12.494 230.753 12.716 230.321 13.16C229.901 13.592 229.691 14.192 229.691 14.96C229.691 15.728 229.901 16.34 230.321 16.796C230.753 17.24 231.275 17.462 231.887 17.462C232.499 17.462 233.015 17.24 233.435 16.796C233.867 16.352 234.083 15.746 234.083 14.978Z" fill="#F6F9FE" />
    <g clip-path="url(#clip0_3934_602)">
        <path d="M102.276 9.22496C101.417 8.3833 100.377 7.74851 99.2359 7.36877C98.0947 6.98903 96.882 6.87433 95.6898 7.0334C94.4976 7.19247 93.3574 7.62111 92.3557 8.28678C91.354 8.95244 90.5171 9.83763 89.9086 10.8751C89.223 12.0854 88.8666 13.4544 88.875 14.8454C88.8565 15.8664 89.0489 16.8802 89.4401 17.8235C89.8313 18.7667 90.4129 19.6191 91.1485 20.3273C91.8776 21.0645 92.7491 21.6456 93.71 22.0353C94.6709 22.4249 95.701 22.615 96.7376 22.5938C98.2841 22.5872 99.7941 22.1237 101.078 21.2618C102.362 20.3998 103.363 19.1777 103.954 17.7489C104.546 16.3201 104.703 14.7484 104.404 13.231C104.106 11.7136 103.365 10.3182 102.277 9.22009L102.276 9.22496ZM102.191 18.0078C101.646 18.9675 100.85 19.7607 99.8888 20.3022C98.9125 20.8613 97.8056 21.1519 96.6805 21.1443C95.8537 21.1468 95.0346 20.9853 94.2706 20.669C93.5067 20.3527 92.8131 19.888 92.23 19.3017C91.6469 18.7155 91.1859 18.0193 90.8738 17.2537C90.5617 16.488 90.4046 15.6681 90.4116 14.8413C90.3963 13.7035 90.6823 12.582 91.2405 11.5904C91.6499 10.8668 92.1992 10.2318 92.8565 9.72265C93.5138 9.21345 94.2659 8.84018 95.0689 8.62462C95.8719 8.40905 96.7098 8.3555 97.5338 8.46706C98.3577 8.57862 99.1512 8.85307 99.8679 9.27442C100.841 9.82053 101.647 10.6199 102.202 11.5877C102.757 12.5555 103.04 13.6555 103.02 14.7709C103.033 15.9042 102.747 17.0209 102.191 18.0085V18.0078ZM118.533 18.0078V18.051C118.539 18.6603 118.41 19.2635 118.156 19.8175C117.902 20.3714 117.529 20.8623 117.063 21.2551C115.997 22.1215 114.652 22.5696 113.28 22.5151C112.195 22.5237 111.119 22.3054 110.123 21.8743C109.145 21.4397 108.257 20.8238 107.508 20.0591L108.589 19.0143C109.193 19.6507 109.92 20.1571 110.727 20.5023C111.534 20.8475 112.403 21.0242 113.28 21.0217C115.509 21.0217 117.02 19.8258 117.02 18.0537V18.0105C117.045 17.6843 116.992 17.3568 116.864 17.0556C116.736 16.7544 116.537 16.4885 116.285 16.2803C115.309 15.6285 114.202 15.1983 113.042 15.0203C111.734 14.8326 110.485 14.3508 109.389 13.6111C108.998 13.3025 108.686 12.9051 108.48 12.452C108.273 11.9988 108.177 11.5029 108.2 11.0053V10.9628C108.195 10.437 108.314 9.91728 108.548 9.44645C108.775 8.96502 109.099 8.53592 109.5 8.1864C110.435 7.43242 111.606 7.03172 112.808 7.05451C113.686 7.06363 114.556 7.22266 115.38 7.52469C116.16 7.83276 116.888 8.25763 117.539 8.78474L116.589 9.93753C115.523 9.05543 114.188 8.56541 112.805 8.5493C111.974 8.52304 111.161 8.79481 110.513 9.31551C110.268 9.51451 110.069 9.765 109.931 10.0493C109.793 10.3336 109.718 10.6447 109.714 10.9608V11.0033C109.689 11.2754 109.733 11.5494 109.843 11.7998C109.952 12.0501 110.124 12.2685 110.341 12.4347C111.263 13.027 112.303 13.4131 113.389 13.5666C114.792 13.7832 116.124 14.3244 117.28 15.147C117.696 15.4947 118.025 15.9338 118.243 16.43C118.46 16.9262 118.56 17.466 118.533 18.0071L118.533 18.0078ZM84.3843 10.5094C83.5871 9.27426 82.3928 8.34759 80.9984 7.88202C79.4214 7.45023 77.7865 7.26853 76.1532 7.34358H73.0682V22.2247H77.8047C79.2907 22.2991 80.7733 22.0223 82.1324 21.4167C83.195 20.8434 84.0667 19.9717 84.64 18.9091C85.3007 17.7035 85.6329 16.3453 85.6033 14.9708C85.6465 13.3959 85.2223 11.8435 84.3843 10.5094V10.5094ZM83.1305 18.464C82.5013 19.404 81.5684 20.0994 80.4878 20.4338C79.0854 20.7514 77.6468 20.8798 76.2103 20.8156H74.4891V8.80007H75.5444C77.0912 8.73777 78.6394 8.88088 80.1486 9.22566C81.3326 9.55857 82.3612 10.2986 83.0532 11.3153C83.7697 12.4047 84.1333 13.6884 84.0946 14.9917C84.1311 16.2189 83.7952 17.4285 83.1312 18.4612L83.1305 18.464ZM40.7106 11.5863C40.1455 12.573 39.8567 13.6938 39.8748 14.8308C39.8531 15.676 40.0083 16.5163 40.3304 17.2981C40.6524 18.0798 41.1343 18.7856 41.745 19.3702C42.3681 19.9735 43.106 20.4455 43.915 20.7583C44.724 21.0711 45.5875 21.2182 46.4544 21.191C47.4544 21.2047 48.4445 20.9911 49.35 20.5666C50.2556 20.142 51.0529 19.5174 51.682 18.7398L52.8578 19.6321C52.1206 20.5731 51.1685 21.3236 50.0813 21.8207C48.9136 22.3485 47.6438 22.612 46.3624 22.5925C45.2063 22.6474 44.0525 22.4424 42.986 21.9925C41.9196 21.5426 40.9676 20.8594 40.2001 19.9929C38.9369 18.5212 38.2634 16.6339 38.3096 14.695C38.2877 13.6694 38.4805 12.6507 38.8756 11.7041C39.2707 10.7575 39.8595 9.90404 40.604 9.19849C41.3625 8.46199 42.261 7.88522 43.2465 7.50235C44.2319 7.11948 45.2841 6.93828 46.3408 6.96952C47.6411 6.95095 48.9282 7.23222 50.1022 7.79147C51.1978 8.32433 52.1444 9.11997 52.8578 10.1075L51.682 11.0067C51.068 10.1917 50.2695 9.53379 49.352 9.08704C48.4178 8.6461 47.3954 8.42363 46.3624 8.43647C45.2062 8.42682 44.0679 8.7221 43.0622 9.29253C42.0858 9.82983 41.2732 10.6215 40.7106 11.5835V11.5863ZM67.789 7.34358H69.2336V16.2908C69.2336 17.9551 68.5725 19.5512 67.3957 20.728C66.2188 21.9049 64.6227 22.566 62.9584 22.566C61.2941 22.566 59.698 21.9049 58.5212 20.728C57.3444 19.5512 56.6832 17.9551 56.6832 16.2908V7.3408H58.1209V16.2908C58.1209 17.5728 58.6302 18.8024 59.5368 19.709C60.4433 20.6155 61.6729 21.1248 62.955 21.1248C64.237 21.1248 65.4666 20.6155 66.3732 19.709C67.2797 18.8024 67.789 17.5728 67.789 16.2908V7.34358Z" fill="#F6F9FE" />
    </g>
    <g clip-path="url(#clip1_3934_602)">
        <path d="M23.8958 4.10535C21.6058 1.81949 18.5942 0.398275 15.3739 0.0838132C12.1537 -0.230649 8.92404 0.581091 6.23514 2.38076C3.54624 4.18042 1.56443 6.8567 0.627321 9.95365C-0.309789 13.0506 -0.144232 16.3767 1.09579 19.3652C2.33581 22.3538 4.57358 24.8201 7.4279 26.3438C10.2822 27.8675 13.5765 28.3545 16.7496 27.7218C19.9227 27.0891 22.7783 25.3758 24.83 22.8738C26.8816 20.3719 28.0024 17.236 28.0014 14.0003C27.9972 10.2884 26.5206 6.72982 23.8958 4.10535V4.10535ZM13.276 26.5243C10.0865 26.3293 7.09167 24.9248 4.90225 22.5973C2.71282 20.2698 1.4938 17.1947 1.4938 13.9993C1.4938 10.8038 2.71282 7.72876 4.90225 5.40129C7.09167 3.07382 10.0865 1.66929 13.276 1.47423V6.22229C11.3374 6.4017 9.53574 7.29868 8.22409 8.73737C6.91243 10.1761 6.18536 12.0527 6.18536 13.9996C6.18536 15.9465 6.91243 17.8232 8.22409 19.2619C9.53574 20.7006 11.3374 21.5975 13.276 21.7769V26.5243ZM14.0004 20.3634C12.5263 20.3647 11.0973 19.8547 9.95712 18.9204C8.81692 17.9861 8.03602 16.6852 7.74752 15.2396C7.45903 13.794 7.68082 12.293 8.37505 10.9926C9.06928 9.6922 10.193 8.67281 11.5547 8.10817C12.9163 7.54353 14.4317 7.4686 15.8424 7.89616C17.2532 8.32373 18.4719 9.2273 19.2911 10.4529C20.1102 11.6785 20.4789 13.1503 20.3344 14.6173C20.19 16.0843 19.5412 17.4558 18.4987 18.4981C17.3061 19.6916 15.6883 20.3625 14.001 20.3634H14.0004ZM23.1191 22.6072C20.9236 24.9355 17.9215 26.337 14.7268 26.525V21.7769C16.6654 21.5975 18.467 20.7006 19.7787 19.2619C21.0903 17.8232 21.8174 15.9465 21.8174 13.9996C21.8174 12.0527 21.0903 10.1761 19.7787 8.73737C18.467 7.29868 16.6654 6.4017 14.7268 6.22229V1.47423C17.1097 1.61503 19.403 2.43263 21.3376 3.83103C23.2721 5.22944 24.7677 7.15066 25.6488 9.36921C26.5298 11.5878 26.7598 14.0116 26.3118 16.3563C25.8637 18.701 24.7562 20.8692 23.1191 22.6065V22.6072Z" fill="url(#paint0_linear_3934_602)" />
    </g>
    <line x1="126.5" y1="7.5" x2="126.5" y2="20.5" stroke="#F6F9FE" stroke-linecap="round" />
    <defs>
        <linearGradient id="paint0_linear_3934_602" x1="4.11197" y1="23.9076" x2="23.8898" y2="4.1303" gradientUnits="userSpaceOnUse">
            <stop offset="0.005" stop-color="#4E9DF7" />
            <stop offset="0.996" stop-color="#6CD8F9" />
            <stop offset="1" stop-color="#6DD9FA" />
        </linearGradient>
        <clipPath id="clip0_3934_602">
            <rect width="80.2231" height="15.6327" fill="white" transform="translate(38.3103 6.96582)" />
        </clipPath>
        <clipPath id="clip1_3934_602">
            <rect width="28" height="28" fill="white" />
        </clipPath>
    </defs>
</svg>