<svg width="196" height="28" viewBox="0 0 196 28" fill="none" xmlns="http://www.w3.org/2000/svg">
    <path d="M153.504 7.364L150.21 20H146.484L144.468 11.684L142.38 20H138.654L135.45 7.364H138.744L140.562 16.562L142.812 7.364H146.196L148.356 16.562L150.192 7.364H153.504ZM154.436 14.96C154.436 13.928 154.628 13.022 155.012 12.242C155.408 11.462 155.942 10.862 156.614 10.442C157.286 10.022 158.036 9.812 158.864 9.812C159.572 9.812 160.19 9.956 160.718 10.244C161.258 10.532 161.672 10.91 161.96 11.378V9.956H165.038V20H161.96V18.578C161.66 19.046 161.24 19.424 160.7 19.712C160.172 20 159.554 20.144 158.846 20.144C158.03 20.144 157.286 19.934 156.614 19.514C155.942 19.082 155.408 18.476 155.012 17.696C154.628 16.904 154.436 15.992 154.436 14.96ZM161.96 14.978C161.96 14.21 161.744 13.604 161.312 13.16C160.892 12.716 160.376 12.494 159.764 12.494C159.152 12.494 158.63 12.716 158.198 13.16C157.778 13.592 157.568 14.192 157.568 14.96C157.568 15.728 157.778 16.34 158.198 16.796C158.63 17.24 159.152 17.462 159.764 17.462C160.376 17.462 160.892 17.24 161.312 16.796C161.744 16.352 161.96 15.746 161.96 14.978ZM170.342 6.68V20H167.264V6.68H170.342ZM175.651 6.68V20H172.573V6.68H175.651ZM187.35 14.816C187.35 15.104 187.332 15.404 187.296 15.716H180.33C180.378 16.34 180.576 16.82 180.924 17.156C181.284 17.48 181.722 17.642 182.238 17.642C183.006 17.642 183.54 17.318 183.84 16.67H187.116C186.948 17.33 186.642 17.924 186.198 18.452C185.766 18.98 185.22 19.394 184.56 19.694C183.9 19.994 183.162 20.144 182.346 20.144C181.362 20.144 180.486 19.934 179.718 19.514C178.95 19.094 178.35 18.494 177.918 17.714C177.486 16.934 177.27 16.022 177.27 14.978C177.27 13.934 177.48 13.022 177.9 12.242C178.332 11.462 178.932 10.862 179.7 10.442C180.468 10.022 181.35 9.812 182.346 9.812C183.318 9.812 184.182 10.016 184.938 10.424C185.694 10.832 186.282 11.414 186.702 12.17C187.134 12.926 187.35 13.808 187.35 14.816ZM184.2 14.006C184.2 13.478 184.02 13.058 183.66 12.746C183.3 12.434 182.85 12.278 182.31 12.278C181.794 12.278 181.356 12.428 180.996 12.728C180.648 13.028 180.432 13.454 180.348 14.006H184.2ZM194.571 17.39V20H193.005C191.889 20 191.019 19.73 190.395 19.19C189.771 18.638 189.459 17.744 189.459 16.508V12.512H188.235V9.956H189.459V7.508H192.537V9.956H194.553V12.512H192.537V16.544C192.537 16.844 192.609 17.06 192.753 17.192C192.897 17.324 193.137 17.39 193.473 17.39H194.571Z" fill="#F6F9FE" />
    <g clip-path="url(#clip0_2618_3216)">
        <path d="M102.276 9.22496C101.417 8.3833 100.377 7.74851 99.2359 7.36877C98.0947 6.98903 96.882 6.87433 95.6898 7.0334C94.4976 7.19247 93.3574 7.62111 92.3557 8.28678C91.354 8.95244 90.5171 9.83763 89.9086 10.8751C89.223 12.0854 88.8666 13.4544 88.875 14.8454C88.8565 15.8664 89.0489 16.8802 89.4401 17.8235C89.8313 18.7667 90.4129 19.6191 91.1485 20.3273C91.8776 21.0645 92.7491 21.6456 93.71 22.0353C94.6709 22.4249 95.701 22.615 96.7376 22.5938C98.2841 22.5872 99.7941 22.1237 101.078 21.2618C102.362 20.3998 103.363 19.1777 103.954 17.7489C104.546 16.3201 104.703 14.7484 104.404 13.231C104.106 11.7136 103.365 10.3182 102.277 9.22009L102.276 9.22496ZM102.191 18.0078C101.646 18.9675 100.85 19.7607 99.8888 20.3022C98.9125 20.8613 97.8056 21.1519 96.6805 21.1443C95.8537 21.1468 95.0346 20.9853 94.2706 20.669C93.5067 20.3527 92.8131 19.888 92.23 19.3017C91.6469 18.7155 91.1859 18.0194 90.8738 17.2537C90.5617 16.488 90.4046 15.6681 90.4116 14.8413C90.3963 13.7035 90.6823 12.582 91.2405 11.5904C91.6499 10.8668 92.1992 10.2318 92.8565 9.72265C93.5138 9.21345 94.2659 8.84018 95.0689 8.62462C95.8719 8.40905 96.7098 8.3555 97.5338 8.46706C98.3577 8.57862 99.1512 8.85307 99.8679 9.27442C100.841 9.82053 101.647 10.6199 102.202 11.5877C102.757 12.5555 103.04 13.6555 103.02 14.7709C103.033 15.9042 102.747 17.0209 102.191 18.0085V18.0078ZM118.533 18.0078V18.051C118.539 18.6603 118.41 19.2635 118.156 19.8175C117.902 20.3714 117.529 20.8623 117.063 21.2551C115.997 22.1215 114.652 22.5696 113.28 22.5151C112.195 22.5237 111.119 22.3054 110.123 21.8743C109.145 21.4397 108.257 20.8238 107.508 20.0591L108.589 19.0143C109.193 19.6507 109.92 20.1571 110.727 20.5023C111.534 20.8475 112.403 21.0242 113.28 21.0217C115.509 21.0217 117.02 19.8258 117.02 18.0537V18.0105C117.045 17.6843 116.992 17.3568 116.864 17.0556C116.736 16.7544 116.537 16.4885 116.285 16.2803C115.309 15.6285 114.202 15.1983 113.042 15.0203C111.734 14.8326 110.485 14.3508 109.389 13.6111C108.998 13.3025 108.686 12.9051 108.48 12.452C108.273 11.9988 108.177 11.5029 108.2 11.0053V10.9628C108.195 10.437 108.314 9.91728 108.548 9.44645C108.775 8.96502 109.099 8.53592 109.5 8.1864C110.435 7.43242 111.606 7.03172 112.808 7.05451C113.686 7.06363 114.556 7.22266 115.38 7.52469C116.16 7.83276 116.888 8.25763 117.539 8.78474L116.589 9.93753C115.523 9.05543 114.188 8.56541 112.805 8.5493C111.974 8.52304 111.161 8.79481 110.513 9.31551C110.268 9.51451 110.069 9.765 109.931 10.0493C109.793 10.3336 109.718 10.6447 109.714 10.9608V11.0033C109.689 11.2754 109.733 11.5494 109.843 11.7998C109.952 12.0501 110.124 12.2685 110.341 12.4347C111.263 13.027 112.303 13.4131 113.389 13.5666C114.792 13.7832 116.124 14.3244 117.28 15.147C117.696 15.4947 118.025 15.9338 118.243 16.43C118.46 16.9262 118.56 17.466 118.533 18.0071L118.533 18.0078ZM84.3843 10.5094C83.5871 9.27426 82.3928 8.34759 80.9984 7.88202C79.4214 7.45023 77.7865 7.26853 76.1532 7.34358H73.0682V22.2247H77.8047C79.2907 22.2991 80.7733 22.0223 82.1324 21.4167C83.195 20.8434 84.0667 19.9717 84.64 18.9091C85.3007 17.7035 85.6329 16.3453 85.6033 14.9708C85.6465 13.3959 85.2223 11.8435 84.3843 10.5094ZM83.1305 18.464C82.5013 19.404 81.5684 20.0994 80.4878 20.4338C79.0854 20.7514 77.6468 20.8798 76.2103 20.8156H74.4891V8.80007H75.5444C77.0912 8.73777 78.6394 8.88088 80.1486 9.22566C81.3326 9.55857 82.3612 10.2986 83.0532 11.3153C83.7697 12.4047 84.1333 13.6884 84.0946 14.9917C84.1311 16.2189 83.7952 17.4285 83.1312 18.4612L83.1305 18.464ZM40.7106 11.5863C40.1455 12.573 39.8567 13.6938 39.8748 14.8308C39.8531 15.676 40.0083 16.5163 40.3304 17.2981C40.6524 18.0798 41.1343 18.7856 41.745 19.3702C42.3681 19.9735 43.106 20.4455 43.915 20.7583C44.724 21.0711 45.5875 21.2182 46.4544 21.191C47.4544 21.2047 48.4445 20.9911 49.35 20.5666C50.2556 20.142 51.0529 19.5174 51.682 18.7398L52.8578 19.6321C52.1206 20.5731 51.1685 21.3236 50.0813 21.8207C48.9136 22.3485 47.6438 22.612 46.3624 22.5925C45.2063 22.6474 44.0525 22.4424 42.986 21.9925C41.9196 21.5426 40.9676 20.8594 40.2001 19.9929C38.9369 18.5212 38.2634 16.6339 38.3096 14.695C38.2877 13.6694 38.4805 12.6507 38.8756 11.7041C39.2707 10.7575 39.8595 9.90404 40.604 9.19849C41.3625 8.46199 42.261 7.88522 43.2465 7.50235C44.2319 7.11948 45.2841 6.93828 46.3408 6.96952C47.6411 6.95095 48.9282 7.23222 50.1022 7.79147C51.1978 8.32433 52.1444 9.11997 52.8578 10.1075L51.682 11.0067C51.068 10.1917 50.2695 9.53379 49.352 9.08704C48.4178 8.6461 47.3954 8.42363 46.3624 8.43647C45.2062 8.42682 44.0679 8.7221 43.0622 9.29253C42.0858 9.82983 41.2732 10.6215 40.7106 11.5835V11.5863ZM67.789 7.34358H69.2336V16.2908C69.2336 17.9551 68.5725 19.5512 67.3957 20.728C66.2188 21.9049 64.6227 22.566 62.9584 22.566C61.2941 22.566 59.698 21.9049 58.5212 20.728C57.3444 19.5512 56.6832 17.9551 56.6832 16.2908V7.3408H58.1209V16.2908C58.1209 17.5728 58.6302 18.8024 59.5368 19.709C60.4433 20.6155 61.6729 21.1248 62.955 21.1248C64.237 21.1248 65.4666 20.6155 66.3732 19.709C67.2797 18.8024 67.789 17.5728 67.789 16.2908V7.34358Z" fill="#F6F9FE" />
    </g>
    <g clip-path="url(#clip1_2618_3216)">
        <path d="M23.8958 4.10535C21.6058 1.81949 18.5942 0.398275 15.3739 0.0838132C12.1537 -0.230649 8.92404 0.581091 6.23514 2.38076C3.54624 4.18042 1.56443 6.8567 0.627321 9.95365C-0.309789 13.0506 -0.144232 16.3767 1.09579 19.3652C2.33581 22.3538 4.57358 24.8201 7.4279 26.3438C10.2822 27.8675 13.5765 28.3545 16.7496 27.7218C19.9227 27.0891 22.7783 25.3758 24.83 22.8738C26.8816 20.3719 28.0024 17.236 28.0014 14.0003C27.9972 10.2884 26.5206 6.72982 23.8958 4.10535ZM13.276 26.5243C10.0865 26.3293 7.09167 24.9248 4.90225 22.5973C2.71282 20.2698 1.4938 17.1947 1.4938 13.9993C1.4938 10.8038 2.71282 7.72876 4.90225 5.40129C7.09167 3.07382 10.0865 1.66929 13.276 1.47423V6.22229C11.3374 6.4017 9.53574 7.29868 8.22409 8.73737C6.91243 10.1761 6.18536 12.0527 6.18536 13.9996C6.18536 15.9465 6.91243 17.8232 8.22409 19.2619C9.53574 20.7006 11.3374 21.5975 13.276 21.7769V26.5243ZM14.0004 20.3634C12.5263 20.3647 11.0973 19.8547 9.95712 18.9204C8.81692 17.9861 8.03602 16.6852 7.74752 15.2396C7.45903 13.794 7.68082 12.293 8.37505 10.9926C9.06928 9.6922 10.193 8.67281 11.5547 8.10817C12.9163 7.54353 14.4317 7.4686 15.8424 7.89616C17.2532 8.32373 18.4719 9.2273 19.2911 10.4529C20.1102 11.6785 20.4789 13.1503 20.3344 14.6173C20.19 16.0843 19.5412 17.4558 18.4987 18.4981C17.3061 19.6916 15.6883 20.3625 14.001 20.3634H14.0004ZM23.1191 22.6072C20.9236 24.9355 17.9215 26.337 14.7268 26.525V21.7769C16.6654 21.5975 18.467 20.7006 19.7787 19.2619C21.0903 17.8232 21.8174 15.9465 21.8174 13.9996C21.8174 12.0527 21.0903 10.1761 19.7787 8.73737C18.467 7.29868 16.6654 6.4017 14.7268 6.22229V1.47423C17.1097 1.61503 19.403 2.43263 21.3376 3.83103C23.2721 5.22944 24.7677 7.15066 25.6488 9.36921C26.5298 11.5878 26.7598 14.0116 26.3118 16.3563C25.8637 18.701 24.7562 20.8692 23.1191 22.6065V22.6072Z" fill="url(#paint0_linear_2618_3216)" />
    </g>
    <line x1="126.5" y1="7.5" x2="126.5" y2="20.5" stroke="#F6F9FE" stroke-linecap="round" />
    <defs>
        <linearGradient id="paint0_linear_2618_3216" x1="4.11197" y1="23.9076" x2="23.8898" y2="4.1303" gradientUnits="userSpaceOnUse">
            <stop offset="0.005" stop-color="#4E9DF7" />
            <stop offset="0.996" stop-color="#6CD8F9" />
            <stop offset="1" stop-color="#6DD9FA" />
        </linearGradient>
        <clipPath id="clip0_2618_3216">
            <rect width="80.2231" height="15.6327" fill="white" transform="translate(38.3103 6.96582)" />
        </clipPath>
        <clipPath id="clip1_2618_3216">
            <rect width="28" height="28" fill="white" />
        </clipPath>
    </defs>
</svg>