<svg width="26" height="28" viewBox="0 0 26 28" fill="none" xmlns="http://www.w3.org/2000/svg">
<g clip-path="url(#clip0_6802_3287)">
<path d="M25.9248 4.94804C25.6434 3.85 24.7238 2.75196 23.0767 1.53039C21.7522 0.555882 20.3522 0 19.2336 0C19.0071 0 18.8081 0.0205882 18.6022 0.0617647C18.0944 0.164706 17.6483 0.535294 17.3601 1.09804C17.0169 1.76373 16.9346 2.64902 17.1542 3.19118C17.2365 3.35588 17.3395 3.56176 17.4561 3.74706C16.3787 4.41275 15.7679 4.59804 15.6855 4.61863C18.4924 5.57255 20.8326 7.56275 22.2944 10.15L22.315 9.90294C22.3767 9.21667 22.5826 8.43431 22.864 7.62451C23.1454 7.70686 23.4336 7.74804 23.715 7.74804C24.4699 7.74804 25.115 7.43922 25.5267 6.87647C25.9316 6.32059 26.0963 5.57255 25.911 4.94804H25.9248Z" fill="#5E12A0"/>
<path d="M22.994 7.02034C24.8469 7.53505 25.595 6.08701 25.3548 5.1125C25.0871 4.13799 24.2361 3.14289 22.7332 2.02427C21.2303 0.905638 19.6999 0.452697 18.7254 0.658579C17.7508 0.864461 17.4626 2.37427 17.7097 2.9576C17.8126 3.18407 18.0322 3.51348 18.341 3.89093C17.9567 4.15858 17.5861 4.36446 17.2842 4.55662C19.1577 5.4076 20.7842 6.73211 22.0058 8.38603C22.1499 7.83015 22.3489 7.32917 22.5342 6.89681C22.6783 6.9174 22.8361 6.95858 23.0009 7.02034H22.994Z" fill="url(#paint0_radial_6802_3287)"/>
<path d="M12.3979 27.3131C18.6773 27.3131 23.7695 22.1317 23.7695 15.7356C23.7695 9.33955 18.6773 4.16504 12.3979 4.16504C6.1185 4.16504 1.0332 9.34641 1.0332 15.7356C1.0332 22.1248 6.12537 27.3131 12.4048 27.3131H12.3979Z" fill="url(#paint1_radial_6802_3287)"/>
<path opacity="0.6" d="M24.4218 4.16483C22.8777 2.51091 21.5738 2.07169 20.0091 1.72169C18.7875 1.43346 19.1169 0.726595 20.5993 0.870713C19.8855 0.623654 19.213 0.561889 18.7257 0.664831C17.7512 0.870713 17.463 2.38052 17.71 2.96385C17.813 3.19032 18.0326 3.51973 18.3414 3.89718C17.7924 4.26777 17.3257 4.54228 16.9414 4.74816C17.1267 4.83052 17.3463 4.93346 17.614 5.07758C18.3071 5.44816 19.0551 6.07267 19.0551 6.07267C17.9159 5.07758 18.163 4.62463 19.7277 3.50601C20.2149 3.15601 21.114 3.19718 21.9444 3.62954C22.7816 4.06189 23.7561 5.15993 23.7561 5.15993L22.8228 6.98542C22.8845 7.00601 22.9463 7.0266 23.0081 7.04718C23.5983 7.21189 24.0649 7.17071 24.4287 7.0266C24.8542 6.75895 25.9728 5.8462 24.4287 4.17169L24.4218 4.16483Z" fill="#A98698"/>
<path d="M19.9883 2.71042C20.3932 2.87512 20.9216 3.16336 21.5736 3.60257C22.3491 4.11728 23.0148 4.70061 23.4471 5.15356C22.7334 6.10748 22.2667 7.4114 21.9854 8.32414C22.1295 8.53003 22.2873 8.73591 22.4314 8.94865C22.5755 8.43395 22.8157 7.66532 23.1452 6.89669C23.2275 6.91728 23.3305 6.91728 23.4265 6.91728C23.6736 6.91728 23.955 6.8761 24.1814 6.69081C24.3461 6.56728 24.5246 6.34081 24.504 5.92218C24.504 5.53101 24.202 5.03003 23.5706 4.43297C23.1246 4.00061 22.5138 3.52022 21.903 3.08787C20.153 1.90748 18.9314 1.57806 18.3824 2.13395C18.0187 2.50454 18.0599 2.96434 18.1765 3.29375C17.5246 3.7261 16.9755 4.04179 16.6118 4.24767C16.8589 4.33003 17.0785 4.43297 17.3255 4.53591C17.9775 4.18591 18.9108 3.58199 19.9883 2.71042ZM23.8314 5.67512C23.8932 5.77807 23.9138 5.88101 23.9138 5.94277C23.9138 6.12806 23.852 6.18983 23.8108 6.23101C23.7285 6.29277 23.5638 6.33395 23.4265 6.33395C23.5501 6.08689 23.6942 5.88101 23.8314 5.66826V5.67512ZM18.8079 2.58689C18.8697 2.52512 19.0344 2.48395 19.2952 2.52512C19.0893 2.68983 18.8903 2.83395 18.6844 2.97807C18.6638 2.83395 18.6844 2.68983 18.8079 2.58689Z" fill="#5E12A0"/>
<path d="M12.3981 3.47949C5.7481 3.47949 0.36084 8.96969 0.36084 15.7364C0.36084 22.503 5.7481 28.0001 12.3981 28.0001C19.0481 28.0001 24.4354 22.5099 24.4354 15.7364C24.4354 8.96283 19.0275 3.47949 12.3981 3.47949ZM12.3981 27.3138C6.11869 27.3138 1.03339 22.1393 1.03339 15.7364C1.03339 9.33341 6.11869 4.16577 12.3981 4.16577C18.6775 4.16577 23.7697 9.34028 23.7697 15.7432C23.7697 22.1462 18.6638 27.3207 12.3981 27.3207V27.3138Z" fill="#5E12A0"/>
<path opacity="0.6" d="M12.3979 27.3131C18.6773 27.3131 23.7695 22.1317 23.7695 15.7356C23.7695 9.33955 18.6773 4.16504 12.3979 4.16504C6.1185 4.16504 1.0332 9.34641 1.0332 15.7356C1.0332 22.1248 6.12537 27.3131 12.4048 27.3131H12.3979Z" fill="url(#paint2_linear_6802_3287)"/>
<path opacity="0.6" d="M12.3226 25.9069C6.11864 24.8912 1.91178 18.9481 2.92746 12.6344C3.37354 9.84123 4.75982 7.45985 6.70884 5.7373C3.8608 7.41181 1.74707 10.3353 1.17746 13.8971C0.182362 20.2108 4.38923 26.1608 10.5726 27.1697C14.0314 27.7461 17.3667 26.655 19.8236 24.5C17.6481 25.7834 15.0059 26.3461 12.3157 25.9069H12.3226Z" fill="#A98698"/>
<path opacity="0.6" d="M14.2097 4.33032C11.341 3.85679 8.55475 4.51561 6.27632 5.98424C6.23514 6.02541 6.19397 6.06659 6.19397 6.06659C7.06554 5.5313 8.34887 5.0509 8.34887 5.0509C5.05475 6.99992 4.03906 9.21659 4.03906 9.21659C5.3224 6.6911 9.08319 4.90679 12.0342 4.78326C14.9852 4.65973 16.9136 5.55188 19.2744 7.47345C21.6352 9.42247 23.0558 13.396 22.9116 16.546C22.7881 19.696 21.1616 22.2421 21.1616 22.2421C22.2803 20.7735 22.9528 19.696 23.3783 18.598C23.4607 18.2686 23.543 17.9323 23.5842 17.5823C24.5999 11.2891 20.4136 5.346 14.2097 4.33032Z" fill="url(#paint3_linear_6802_3287)"/>
<path d="M23.1997 15.6328C23.1997 21.6995 18.3615 26.6269 12.3977 26.6269C6.434 26.6269 1.58203 21.7063 1.58203 15.6328H23.1997Z" fill="url(#paint4_linear_6802_3287)"/>
<g opacity="0.6">
<path opacity="0.6" d="M22.3491 15.6328C22.3491 21.5554 17.7511 26.4005 11.9795 26.6269H12.405C18.3619 26.6269 23.207 21.6995 23.207 15.6328H22.356H22.3491Z" fill="url(#paint5_linear_6802_3287)"/>
</g>
<g opacity="0.7">
<path opacity="0.7" d="M3.10556 15.6328H1.58203C1.58203 21.6995 6.42027 26.6269 12.384 26.6269C12.6517 26.6269 12.8918 26.6269 13.1389 26.6063C7.54576 26.1946 3.11243 21.4318 3.11243 15.6328H3.10556Z" fill="url(#paint6_linear_6802_3287)"/>
</g>
<path d="M23.1796 15.7357C23.1796 14.473 21.0247 13.7455 18.1561 13.4985C16.0835 13.3338 13.9835 13.5396 11.5884 14.2877C9.51586 14.9122 7.64233 14.8024 6.28351 14.6377C3.25017 14.2877 1.58252 14.2465 1.58252 15.7357C1.58252 17.8906 5.89233 20.5808 12.3639 19.6475C15.6374 19.174 17.3257 18.1994 19.261 17.5338C21.3541 16.8269 23.1865 16.8475 23.1865 15.7289L23.1796 15.7357Z" fill="url(#paint7_linear_6802_3287)"/>
<path d="M15.9393 10.5195C16.9481 10.5195 17.7716 9.68221 17.7716 8.6528C17.7716 7.62339 16.955 6.78613 15.9393 6.78613C14.9236 6.78613 14.1069 7.62339 14.1069 8.6528C14.1069 9.68221 14.9236 10.5195 15.9393 10.5195Z" fill="white"/>
<path d="M18.9313 11.9066C19.3567 11.9066 19.7067 11.5566 19.7067 11.1173C19.7067 10.6781 19.3636 10.3281 18.9313 10.3281C18.4989 10.3281 18.1558 10.6781 18.1558 11.1173C18.1558 11.5566 18.4989 11.9066 18.9313 11.9066Z" fill="white"/>
<g opacity="0.6">
<path opacity="0.6" d="M21.6969 7.16377H21.6557C21.5322 7.14318 21.4498 7.01965 21.4704 6.87553C21.6557 5.92161 22.4244 5.00887 22.4655 4.96769C22.5479 4.86475 22.7126 4.86475 22.7881 4.9471C22.891 5.02945 22.891 5.19416 22.8087 5.27651C22.7881 5.2971 22.0744 6.14808 21.9165 6.97161C21.8959 7.09514 21.793 7.15691 21.69 7.15691L21.6969 7.16377Z" fill="url(#paint8_linear_6802_3287)"/>
</g>
<path opacity="0.2" d="M11.6502 24.3756C11.9659 24.3756 12.2198 24.1148 12.2198 23.7992C12.2198 23.4835 11.9659 23.2158 11.6502 23.2158C11.3345 23.2158 11.0806 23.4766 11.0806 23.7992C11.0806 24.1217 11.3345 24.3756 11.6502 24.3756Z" fill="white"/>
<g opacity="0.4">
<path opacity="0.6" d="M11.3206 24.1697C11.0941 23.9432 11.0941 23.5657 11.3206 23.3393C11.3617 23.2981 11.4029 23.2775 11.4441 23.2363C11.3617 23.2569 11.3 23.2981 11.2382 23.3599C11.0117 23.5863 11.0117 23.9638 11.2382 24.1902C11.4235 24.3755 11.7049 24.4167 11.9314 24.2932C11.7255 24.3755 11.4853 24.3344 11.3206 24.1697Z" fill="url(#paint9_linear_6802_3287)"/>
</g>
<path opacity="0.3" d="M11.8491 23.6279C11.9177 23.6279 11.9726 23.573 11.9726 23.5044C11.9726 23.4358 11.9177 23.3809 11.8491 23.3809C11.7805 23.3809 11.7256 23.4358 11.7256 23.5044C11.7256 23.573 11.7805 23.6279 11.8491 23.6279Z" fill="white"/>
<path opacity="0.2" d="M14.6214 24.0875C14.9371 24.0875 15.191 23.8268 15.191 23.5111C15.191 23.1954 14.9371 22.9277 14.6214 22.9277C14.3057 22.9277 14.0518 23.1885 14.0518 23.5111C14.0518 23.8336 14.3057 24.0875 14.6214 24.0875Z" fill="white"/>
<g opacity="0.4">
<path opacity="0.6" d="M14.2922 23.8816C14.0658 23.6551 14.0658 23.2777 14.2922 23.0512C14.3334 23.01 14.3746 22.9894 14.4158 22.9482C14.3334 22.9688 14.2717 23.01 14.2099 23.0718C13.9834 23.2982 13.9834 23.6757 14.2099 23.9022C14.3952 24.0875 14.6766 24.1286 14.903 24.0051C14.6971 24.0875 14.457 24.0463 14.2922 23.8816Z" fill="url(#paint10_linear_6802_3287)"/>
</g>
<path opacity="0.3" d="M14.8208 23.3398C14.8894 23.3398 14.9443 23.2849 14.9443 23.2163C14.9443 23.1477 14.8894 23.0928 14.8208 23.0928C14.7522 23.0928 14.6973 23.1477 14.6973 23.2163C14.6973 23.2849 14.7522 23.3398 14.8208 23.3398Z" fill="white"/>
<path opacity="0.2" d="M13.153 25.4331C13.3864 25.4331 13.5785 25.2409 13.5785 25.0007C13.5785 24.7605 13.3864 24.5684 13.153 24.5684C12.9197 24.5684 12.7275 24.7605 12.7275 25.0007C12.7275 25.2409 12.9197 25.4331 13.153 25.4331Z" fill="white"/>
<g opacity="0.4">
<path opacity="0.6" d="M12.9055 25.2683C12.7408 25.1036 12.7408 24.8154 12.9055 24.6438C12.9261 24.6232 12.9673 24.6026 12.9879 24.582C12.9261 24.6026 12.8849 24.6438 12.8437 24.685C12.679 24.8497 12.679 25.1379 12.8437 25.3095C12.9879 25.4536 13.1869 25.4742 13.3722 25.3712C13.2075 25.433 13.029 25.3918 12.9055 25.2683Z" fill="url(#paint11_linear_6802_3287)"/>
</g>
<path opacity="0.3" d="M13.2972 24.8493C13.3452 24.8493 13.3795 24.815 13.3795 24.7669C13.3795 24.7189 13.3452 24.6846 13.2972 24.6846C13.2492 24.6846 13.2148 24.7189 13.2148 24.7669C13.2148 24.815 13.2492 24.8493 13.2972 24.8493Z" fill="white"/>
<path opacity="0.2" d="M15.7746 25.1235C16.0079 25.1235 16.2001 24.9313 16.2001 24.6911C16.2001 24.4509 16.0079 24.2588 15.7746 24.2588C15.5413 24.2588 15.3491 24.4509 15.3491 24.6911C15.3491 24.9313 15.5413 25.1235 15.7746 25.1235Z" fill="white"/>
<g opacity="0.4">
<path opacity="0.6" d="M15.5344 24.9529C15.3697 24.7882 15.3697 24.4999 15.5344 24.3284C15.555 24.3078 15.5962 24.2872 15.6168 24.2666C15.555 24.2872 15.5138 24.3284 15.4727 24.3695C15.3079 24.5342 15.3079 24.8225 15.4727 24.9941C15.6168 25.1382 15.8158 25.1588 16.0011 25.0558C15.8364 25.1176 15.6579 25.0764 15.5344 24.9529Z" fill="url(#paint12_linear_6802_3287)"/>
</g>
<path opacity="0.3" d="M15.9183 24.5407C15.9663 24.5407 16.0006 24.5064 16.0006 24.4583C16.0006 24.4103 15.9663 24.376 15.9183 24.376C15.8703 24.376 15.8359 24.4103 15.8359 24.4583C15.8359 24.5064 15.8703 24.5407 15.9183 24.5407Z" fill="white"/>
<path opacity="0.2" d="M9.22728 24.1705C9.74199 24.1705 10.1606 23.7451 10.1606 23.2166C10.1606 22.6882 9.74199 22.2627 9.22728 22.2627C8.71257 22.2627 8.29395 22.6882 8.29395 23.2166C8.29395 23.7451 8.71257 24.1705 9.22728 24.1705Z" fill="white"/>
<g opacity="0.4">
<path opacity="0.6" d="M8.69903 23.8134C8.33531 23.4428 8.33531 22.8389 8.69903 22.4683C8.7608 22.4066 8.82256 22.3654 8.90491 22.3242C8.78138 22.3654 8.67844 22.4478 8.58236 22.5301C8.21864 22.9007 8.21864 23.5046 8.58236 23.8752C8.88433 24.184 9.35786 24.2458 9.72158 24.0193C9.37844 24.1634 8.96668 24.1017 8.70589 23.8134H8.69903Z" fill="url(#paint13_linear_6802_3287)"/>
</g>
<path opacity="0.3" d="M9.55012 22.9274C9.65993 22.9274 9.756 22.8313 9.756 22.7215C9.756 22.6117 9.66679 22.5156 9.55012 22.5156C9.43345 22.5156 9.34424 22.6117 9.34424 22.7215C9.34424 22.8313 9.43345 22.9274 9.55012 22.9274Z" fill="white"/>
<path opacity="0.2" d="M17.5867 21.8297C18.1014 21.8297 18.52 21.4042 18.52 20.8758C18.52 20.3474 18.1014 19.9219 17.5867 19.9219C17.0719 19.9219 16.6533 20.3474 16.6533 20.8758C16.6533 21.4042 17.0719 21.8297 17.5867 21.8297Z" fill="white"/>
<g opacity="0.4">
<path opacity="0.6" d="M17.0369 21.4736C16.6732 21.103 16.6732 20.4991 17.0369 20.1285C17.0987 20.0667 17.1605 20.0256 17.2428 19.9844C17.1193 20.0256 17.0163 20.1079 16.9203 20.1903C16.5565 20.5608 16.5565 21.1648 16.9203 21.5354C17.2222 21.8442 17.6957 21.9059 18.0595 21.6795C17.7163 21.8236 17.3252 21.7618 17.0438 21.4736H17.0369Z" fill="url(#paint14_linear_6802_3287)"/>
</g>
<path opacity="0.3" d="M17.909 20.5875C18.0188 20.5875 18.1149 20.4915 18.1149 20.3817C18.1149 20.2719 18.0257 20.1758 17.909 20.1758C17.7923 20.1758 17.7031 20.2719 17.7031 20.3817C17.7031 20.4915 17.7923 20.5875 17.909 20.5875Z" fill="white"/>
</g>
<defs>
<radialGradient id="paint0_radial_6802_3287" cx="0" cy="0" r="1" gradientUnits="userSpaceOnUse" gradientTransform="translate(22.1293 2.4536) scale(9.09315 9.25784)">
<stop stop-color="#FFEAFF" stop-opacity="0.6"/>
<stop offset="0.68" stop-color="#A087C9"/>
<stop offset="1" stop-color="#10002F"/>
</radialGradient>
<radialGradient id="paint1_radial_6802_3287" cx="0" cy="0" r="1" gradientUnits="userSpaceOnUse" gradientTransform="translate(17.3219 7.29445) scale(22.2422 22.6471)">
<stop stop-color="#FFEAFF" stop-opacity="0.6"/>
<stop offset="0.68" stop-color="#A087C9"/>
<stop offset="1" stop-color="#10002F"/>
</radialGradient>
<linearGradient id="paint2_linear_6802_3287" x1="10.5175" y1="27.1621" x2="14.2852" y2="4.32288" gradientUnits="userSpaceOnUse">
<stop stop-color="#81FFFF"/>
<stop offset="0.62" stop-color="white" stop-opacity="0"/>
</linearGradient>
<linearGradient id="paint3_linear_6802_3287" x1="20.5165" y1="7.99502" x2="10.9567" y2="16.6078" gradientUnits="userSpaceOnUse">
<stop offset="0.29" stop-color="white"/>
<stop offset="0.78" stop-color="white" stop-opacity="0"/>
</linearGradient>
<linearGradient id="paint4_linear_6802_3287" x1="1.58203" y1="21.1367" x2="23.1997" y2="21.1367" gradientUnits="userSpaceOnUse">
<stop stop-color="#0002E9"/>
<stop offset="1" stop-color="#FF00C7"/>
</linearGradient>
<linearGradient id="paint5_linear_6802_3287" x1="24.2775" y1="16.6691" x2="12.3158" y2="27.7662" gradientUnits="userSpaceOnUse">
<stop offset="0.29" stop-color="white"/>
<stop offset="0.78" stop-color="white" stop-opacity="0"/>
</linearGradient>
<linearGradient id="paint6_linear_6802_3287" x1="1.58203" y1="21.1367" x2="13.132" y2="21.1367" gradientUnits="userSpaceOnUse">
<stop stop-color="#000292"/>
<stop offset="1" stop-color="#7D00C7"/>
</linearGradient>
<linearGradient id="paint7_linear_6802_3287" x1="1.60311" y1="16.6485" x2="23.1796" y2="16.6485" gradientUnits="userSpaceOnUse">
<stop stop-color="#000292"/>
<stop offset="1" stop-color="#BE00C7"/>
</linearGradient>
<linearGradient id="paint8_linear_6802_3287" x1="22.8567" y1="4.88534" x2="21.2646" y2="7.42455" gradientUnits="userSpaceOnUse">
<stop offset="0.29" stop-color="white"/>
<stop offset="0.78" stop-color="white" stop-opacity="0"/>
</linearGradient>
<linearGradient id="paint9_linear_6802_3287" x1="11.0735" y1="23.7991" x2="11.9314" y2="23.7991" gradientUnits="userSpaceOnUse">
<stop offset="0.29" stop-color="white"/>
<stop offset="0.78" stop-color="white" stop-opacity="0"/>
</linearGradient>
<linearGradient id="paint10_linear_6802_3287" x1="14.0383" y1="23.511" x2="14.903" y2="23.511" gradientUnits="userSpaceOnUse">
<stop offset="0.29" stop-color="white"/>
<stop offset="0.78" stop-color="white" stop-opacity="0"/>
</linearGradient>
<linearGradient id="paint11_linear_6802_3287" x1="12.7202" y1="25.0075" x2="13.3722" y2="25.0075" gradientUnits="userSpaceOnUse">
<stop offset="0.29" stop-color="white"/>
<stop offset="0.78" stop-color="white" stop-opacity="0"/>
</linearGradient>
<linearGradient id="paint12_linear_6802_3287" x1="15.3354" y1="24.699" x2="15.9874" y2="24.699" gradientUnits="userSpaceOnUse">
<stop offset="0.29" stop-color="white"/>
<stop offset="0.78" stop-color="white" stop-opacity="0"/>
</linearGradient>
<linearGradient id="paint13_linear_6802_3287" x1="8.29413" y1="23.2438" x2="9.70099" y2="23.2438" gradientUnits="userSpaceOnUse">
<stop offset="0.29" stop-color="white"/>
<stop offset="0.78" stop-color="white" stop-opacity="0"/>
</linearGradient>
<linearGradient id="paint14_linear_6802_3287" x1="16.6389" y1="20.904" x2="18.0457" y2="20.904" gradientUnits="userSpaceOnUse">
<stop offset="0.29" stop-color="white"/>
<stop offset="0.78" stop-color="white" stop-opacity="0"/>
</linearGradient>
<clipPath id="clip0_6802_3287">
<rect width="25.6392" height="28" fill="white" transform="translate(0.36084)"/>
</clipPath>
</defs>
</svg>
