<svg width="14" height="18" viewBox="0 0 14 18" fill="none" xmlns="http://www.w3.org/2000/svg">
    <path d="M9.49992 5.66699H13.1666L8.66658 1.16699V4.83366C8.66658 5.33366 8.99992 5.66699 9.49992 5.66699ZM9.49992 7.33366C8.08325 7.33366 6.99992 6.25033 6.99992 4.83366V0.666992H2.83325C1.41659 0.666992 0.333252 1.75033 0.333252 3.16699V14.8337C0.333252 16.2503 1.41659 17.3337 2.83325 17.3337H11.1666C12.5833 17.3337 13.6666 16.2503 13.6666 14.8337V7.33366H9.49992ZM4.49992 5.66699H5.33325C5.83325 5.66699 6.16658 6.00033 6.16658 6.50033C6.16658 7.00033 5.83325 7.33366 5.33325 7.33366H4.49992C3.99992 7.33366 3.66658 7.00033 3.66658 6.50033C3.66658 6.00033 3.99992 5.66699 4.49992 5.66699ZM9.49992 14.0003H4.49992C3.99992 14.0003 3.66658 13.667 3.66658 13.167C3.66658 12.667 3.99992 12.3337 4.49992 12.3337H9.49992C9.99992 12.3337 10.3333 12.667 10.3333 13.167C10.3333 13.667 9.99992 14.0003 9.49992 14.0003ZM9.49992 10.667H4.49992C3.99992 10.667 3.66658 10.3337 3.66658 9.83366C3.66658 9.33366 3.99992 9.00033 4.49992 9.00033H9.49992C9.99992 9.00033 10.3333 9.33366 10.3333 9.83366C10.3333 10.3337 9.99992 10.667 9.49992 10.667Z" fill="currentColor" />
</svg>