<svg width="24" height="24" viewBox="0 0 24 24" fill="currentColor" xmlns="http://www.w3.org/2000/svg">
    <path d="M21.325 9.308C20.567 9.308 19.9 9.627 19.409 10.124C17.604 8.856 15.17 8.04 12.473 7.953L13.874 1.547L18.335 2.563C18.335 3.671 19.225 4.576 20.317 4.576C21.43 4.576 22.325 3.647 22.325 2.538C22.325 1.429 21.436 0.5 20.318 0.5C19.539 0.5 18.867 0.977 18.532 1.629L13.605 0.521C13.357 0.454 13.114 0.634 13.048 0.886L11.51 7.948C8.83396 8.061 6.42596 8.876 4.61496 10.145C4.12396 9.627 3.43096 9.308 2.67296 9.308C-0.139038 9.308 -1.06004 13.137 1.51496 14.446C1.42396 14.851 1.38296 15.283 1.38296 15.714C1.38296 20.015 6.15796 23.5 12.021 23.5C17.909 23.5 22.684 20.015 22.684 15.714C22.684 15.283 22.639 14.831 22.528 14.425C25.051 13.111 24.122 9.31 21.325 9.308ZM5.60096 14.718C5.60096 13.589 6.49096 12.68 7.60896 12.68C8.70096 12.68 9.59196 13.583 9.59196 14.718C9.59196 15.827 8.70196 16.731 7.60896 16.731C6.49596 16.736 5.60096 15.827 5.60096 14.718ZM16.44 19.516C14.599 21.384 9.40396 21.384 7.56196 19.516C7.35896 19.336 7.35896 19.018 7.56196 18.813C7.73896 18.633 8.05296 18.633 8.22996 18.813C9.63596 20.276 14.3 20.301 15.767 18.813C15.944 18.633 16.258 18.633 16.435 18.813C16.642 19.019 16.642 19.337 16.44 19.516ZM16.399 16.735C15.307 16.735 14.417 15.832 14.417 14.724C14.417 13.595 15.307 12.686 16.399 12.686C17.512 12.686 18.407 13.589 18.407 14.724C18.402 15.827 17.512 16.735 16.399 16.735Z" fill="currentColor" />
</svg>