<svg width="21" height="21" viewBox="0 0 21 21" fill="none" xmlns="http://www.w3.org/2000/svg">
<path d="M20.7099 19.2904L16.9999 15.6104C18.44 13.8148 19.1374 11.5357 18.9487 9.24169C18.76 6.94769 17.6996 4.81318 15.9854 3.27704C14.2713 1.7409 12.0337 0.919903 9.73283 0.982863C7.43194 1.04582 5.24263 1.98795 3.61505 3.61553C1.98747 5.24311 1.04534 7.43243 0.982375 9.73332C0.919414 12.0342 1.74041 14.2718 3.27655 15.9859C4.81269 17.7001 6.94721 18.7605 9.2412 18.9492C11.5352 19.1379 13.8143 18.4405 15.6099 17.0004L19.2899 20.6804C19.3829 20.7741 19.4935 20.8485 19.6153 20.8993C19.7372 20.9501 19.8679 20.9762 19.9999 20.9762C20.1319 20.9762 20.2626 20.9501 20.3845 20.8993C20.5063 20.8485 20.6169 20.7741 20.7099 20.6804C20.8901 20.4939 20.9909 20.2447 20.9909 19.9854C20.9909 19.7261 20.8901 19.4769 20.7099 19.2904ZM9.9999 17.0004C8.61544 17.0004 7.26206 16.5899 6.11091 15.8207C4.95977 15.0515 4.06256 13.9583 3.53275 12.6792C3.00293 11.4001 2.86431 9.99263 3.13441 8.63476C3.4045 7.27689 4.07119 6.02961 5.05016 5.05065C6.02912 4.07168 7.27641 3.40499 8.63427 3.1349C9.99214 2.8648 11.3996 3.00342 12.6787 3.53324C13.9578 4.06305 15.051 4.96026 15.8202 6.1114C16.5894 7.26255 16.9999 8.61592 16.9999 10.0004C16.9999 11.8569 16.2624 13.6374 14.9497 14.9501C13.6369 16.2629 11.8564 17.0004 9.9999 17.0004Z" fill="#7D87AA"/>
</svg>
