<svg width="17" height="17" viewBox="0 0 17 17" fill="currentColor" xmlns="http://www.w3.org/2000/svg">
    <path d="M15.6678 9.095C15.4081 8.755 15.4081 8.33 15.6678 7.99L16.7928 6.8C17.0525 6.545 17.0525 6.12 16.8794 5.78L15.1485 2.805C14.9754 2.465 14.6293 2.295 14.1965 2.38L12.5522 2.72C12.1195 2.805 11.6868 2.55 11.6003 2.125L11.081 0.595C10.9079 0.255 10.5617 0 10.2156 0H6.75385C6.40768 0 6.06151 0.255 5.97497 0.595L5.36917 2.125C5.28262 2.55 4.84991 2.805 4.41719 2.72L2.77288 2.38C2.42671 2.295 2.08054 2.465 1.82091 2.805L0.0900494 5.78C-0.0830363 6.035 0.00350659 6.46 0.263135 6.715L1.38819 7.905C1.64782 8.245 1.64782 8.67 1.38819 9.01L0.263135 10.2C0.00350659 10.455 0.00350668 10.88 0.176592 11.22L1.90745 14.195C2.08054 14.535 2.42671 14.705 2.85942 14.62L4.50374 14.28C4.93645 14.195 5.36917 14.45 5.45571 14.875L5.97497 16.405C6.06151 16.745 6.40768 17 6.75385 17H10.2156C10.5617 17 10.9079 16.745 10.9945 16.405L11.5137 14.875C11.6868 14.45 12.1195 14.195 12.4657 14.28L14.11 14.62C14.4562 14.705 14.8889 14.535 15.062 14.195L16.7928 11.22C16.9659 10.88 16.9659 10.54 16.7063 10.2L15.6678 9.095ZM8.48471 11.05C7.01348 11.05 5.88842 9.945 5.88842 8.5C5.88842 7.055 7.01348 5.95 8.48471 5.95C9.95594 5.95 11.081 7.055 11.081 8.5C11.081 9.945 9.95594 11.05 8.48471 11.05Z" fill="#currentColor" />
</svg>