<svg width="24" height="24" viewBox="0 0 24 24" fill="currentColor" xmlns="http://www.w3.org/2000/svg">
<path d="M12.0002 1.00024C9.82459 1.00024 7.69788 1.64537 5.88897 2.85405C4.08005 4.06273 2.67018 5.78067 1.83762 7.79063C1.00507 9.80059 0.787238 12.0123 1.21167 14.1461C1.6361 16.2798 2.68373 18.2398 4.22209 19.7782C5.76045 21.3165 7.72043 22.3641 9.85419 22.7886C11.988 23.213 14.1997 22.9952 16.2096 22.1626C18.2196 21.3301 19.9375 19.9202 21.1462 18.1113C22.3549 16.3024 23 14.1757 23 12.0001C22.999 9.08305 21.8398 6.28577 19.7771 4.22311C17.7145 2.16046 14.9172 1.00123 12.0002 1.00024ZM16.4666 17.1851C16.296 17.1809 16.1305 17.1253 15.992 17.0254C13.2243 15.3575 10.0036 15.2866 6.82393 15.9385C6.65199 15.9935 6.47524 16.0321 6.29604 16.0538C6.20365 16.0552 6.11193 16.038 6.02631 16.0032C5.94069 15.9685 5.86291 15.917 5.79758 15.8516C5.73224 15.7863 5.68068 15.7085 5.64595 15.6229C5.61122 15.5373 5.59402 15.4455 5.59537 15.3532C5.58297 15.1758 5.63829 15.0003 5.75016 14.862C5.86204 14.7238 6.02215 14.6331 6.19823 14.6083C9.83079 13.8054 13.5433 13.8764 16.7102 15.7703C16.9808 15.9432 17.1404 16.0985 17.1404 16.5022C17.1421 16.5916 17.1259 16.6805 17.0928 16.7635C17.0596 16.8466 17.0102 16.9222 16.9474 16.9858C16.8845 17.0495 16.8096 17.0999 16.727 17.1341C16.6444 17.1684 16.5558 17.1858 16.4663 17.1852L16.4666 17.1851ZM17.6597 14.2755C17.4645 14.2633 17.2762 14.199 17.1142 14.0893C14.342 12.448 10.2082 11.787 6.53132 12.785C6.36205 12.8493 6.18414 12.8882 6.00343 12.9003C5.77528 12.9 5.55654 12.8093 5.39521 12.648C5.23388 12.4867 5.14316 12.2679 5.14294 12.0398C5.12728 11.8295 5.18828 11.6206 5.31467 11.4519C5.44107 11.2831 5.6243 11.1658 5.83049 11.1216C7.23887 10.7083 8.70053 10.505 10.1683 10.5184C13.0469 10.5184 15.8278 11.2325 18.0189 12.5366C18.1782 12.6181 18.3105 12.7441 18.3996 12.8993C18.4887 13.0545 18.5308 13.2323 18.5209 13.411C18.5216 13.5244 18.4999 13.6368 18.4569 13.7418C18.414 13.8468 18.3507 13.9422 18.2707 14.0226C18.1907 14.103 18.0956 14.1668 17.9909 14.2102C17.8861 14.2537 17.7738 14.276 17.6604 14.2758L17.6597 14.2755ZM19.0347 10.8957C18.831 10.8965 18.6317 10.8363 18.4626 10.7228C15.3045 8.83745 9.65817 8.38518 6.00392 9.40517C5.81949 9.46996 5.62695 9.50877 5.43182 9.52047C5.29462 9.52181 5.15854 9.49555 5.03168 9.44325C4.90482 9.39095 4.78977 9.31369 4.69337 9.21604C4.59696 9.1184 4.52117 9.00237 4.4705 8.87486C4.41982 8.74734 4.3953 8.61094 4.39839 8.47376C4.38731 8.23565 4.45773 8.00087 4.59803 7.80817C4.73833 7.61546 4.94014 7.47635 5.17015 7.41377C6.86664 6.94343 8.62134 6.71645 10.3817 6.73966C13.6203 6.73966 17.0127 7.41377 19.492 8.8598C19.6755 8.95183 19.8278 9.0961 19.9296 9.27445C20.0314 9.4528 20.0782 9.65727 20.0641 9.86214C20.0648 9.9977 20.0388 10.1321 19.9874 10.2575C19.936 10.383 19.8603 10.497 19.7646 10.5931C19.669 10.6891 19.5553 10.7653 19.43 10.8172C19.3048 10.8691 19.1706 10.8958 19.035 10.8956L19.0347 10.8957Z" fill="currentColor"/>
</svg>
