<svg width="18" height="12" viewBox="0 0 18 12" fill="none" xmlns="http://www.w3.org/2000/svg">
    <path d="M17.0917 3.7415L13.7584 0.408162C13.6807 0.330464 13.5884 0.26883 13.4869 0.226779C13.3854 0.184729 13.2766 0.163086 13.1667 0.163086C12.9448 0.163086 12.732 0.251243 12.575 0.408162C12.4181 0.565082 12.33 0.777911 12.33 0.999829C12.33 1.22175 12.4181 1.43458 12.575 1.5915L14.4917 3.49983H4.83337C4.61235 3.49983 4.40039 3.58763 4.24411 3.74391C4.08783 3.90019 4.00004 4.11215 4.00004 4.33316C4.00004 4.55418 4.08783 4.76614 4.24411 4.92242C4.40039 5.0787 4.61235 5.1665 4.83337 5.1665H16.5C16.6646 5.16567 16.8252 5.11617 16.9616 5.02423C17.098 4.93228 17.2042 4.80201 17.2667 4.64983C17.3305 4.49807 17.348 4.33081 17.3168 4.16915C17.2857 4.00749 17.2073 3.85868 17.0917 3.7415ZM13.1667 6.83316H1.50003C1.33551 6.83398 1.17492 6.88349 1.03848 6.97543C0.90205 7.06737 0.795885 7.19765 0.733368 7.34983C0.669552 7.50159 0.652116 7.66885 0.683262 7.83051C0.714407 7.99217 0.792737 8.14098 0.908368 8.25816L4.2417 11.5915C4.31917 11.6696 4.41134 11.7316 4.51289 11.7739C4.61444 11.8162 4.72336 11.838 4.83337 11.838C4.94338 11.838 5.0523 11.8162 5.15385 11.7739C5.2554 11.7316 5.34757 11.6696 5.42504 11.5915C5.50314 11.514 5.56514 11.4219 5.60744 11.3203C5.64975 11.2188 5.67153 11.1098 5.67153 10.9998C5.67153 10.8898 5.64975 10.7809 5.60744 10.6793C5.56514 10.5778 5.50314 10.4856 5.42504 10.4082L3.50837 8.49983H13.1667C13.3877 8.49983 13.5997 8.41203 13.756 8.25575C13.9122 8.09947 14 7.88751 14 7.6665C14 7.44548 13.9122 7.23352 13.756 7.07724C13.5997 6.92096 13.3877 6.83316 13.1667 6.83316Z" fill="#7D87AA" />
</svg>