<svg width="70" height="67" viewBox="0 0 70 67" fill="none" xmlns="http://www.w3.org/2000/svg">
    <path d="M70 33.4192C70 36.8818 63.7965 39.3212 62.782 42.4457C61.7298 45.6841 65.2784 51.2973 63.3162 53.9919C61.3356 56.7144 54.8877 55.0642 52.1651 57.0459C49.4696 59.0071 49.058 65.659 45.8206 66.7071C42.6961 67.7216 38.4665 62.6146 34.9999 62.6146C31.5333 62.6146 27.3075 67.7216 24.1792 66.7071C20.9408 65.6549 20.5292 59.0032 17.8337 57.0459C15.1121 55.0653 8.66419 56.7155 6.68258 53.9929C4.72137 51.2973 8.26896 45.6841 7.21777 42.4467C6.20354 39.3222 0 36.8828 0 33.4202C0 29.9577 6.20354 27.5182 7.21797 24.3937C8.26916 21.1561 4.72157 15.5429 6.68278 12.8476C8.66439 10.125 15.1123 11.7752 17.8349 9.79459C20.5294 7.83338 20.941 1.18049 24.1794 0.133336C27.3039 -0.881098 31.5335 4.22581 35.0001 4.22581C38.4665 4.22581 42.6925 -0.881098 45.8208 0.133336C49.0584 1.18453 49.4708 7.83722 52.1653 9.79459C54.8879 11.7762 61.3358 10.126 63.3174 12.8476C65.2786 15.5431 61.73 21.1563 62.7822 24.3937C63.7965 27.517 70 29.9564 70 33.4192V33.4192Z" fill="#52A6F8" />
    <path d="M31.9432 45.3188C30.9183 45.3202 29.9349 44.913 29.2109 44.1874L20.595 35.5715C19.0856 34.0624 19.0852 31.6155 20.594 30.1061C22.103 28.5967 24.5499 28.5962 26.0594 30.1051L31.943 35.9879L43.9472 23.9847C45.4564 22.4753 47.9035 22.4751 49.413 23.9843C50.9224 25.4936 50.9226 27.9407 49.4134 29.4501L34.6761 44.1874C33.9521 44.9132 32.9684 45.3204 31.9432 45.3188Z" fill="#F6F9FE" />
</svg>