<svg width="24" height="20" viewBox="0 0 24 20" fill="none" xmlns="http://www.w3.org/2000/svg">
<path d="M21.2935 0.914337C18.3405 2.13738 5.67861 7.3821 2.18013 8.81154C-0.16611 9.72714 1.20741 10.5856 1.20741 10.5856C1.20741 10.5856 3.21021 11.2723 4.92717 11.7873C6.64389 12.3023 7.55949 11.7302 7.55949 11.7302L15.6283 6.2937C18.4896 4.34802 17.8029 5.95026 17.116 6.63714C15.6283 8.12514 13.1676 10.4711 11.1074 12.3597C10.1918 13.1608 10.6495 13.8475 11.0503 14.1909C12.538 15.4499 16.6012 18.0251 16.83 18.1967C18.0388 19.0526 20.4168 20.2845 20.7785 17.6817L22.2091 8.6973C22.667 5.66442 23.1247 2.86026 23.1818 2.05914C23.3536 0.113217 21.2935 0.914337 21.2935 0.914337Z" fill="#7D87AA"/>
</svg>
