<svg width="21" height="21" viewBox="0 0 21 21" fill="none" xmlns="http://www.w3.org/2000/svg">
<path d="M10.5 1.75C5.6875 1.75 1.75 5.6875 1.75 10.5C1.75 15.3125 5.6875 19.25 10.5 19.25C15.3125 19.25 19.25 15.3125 19.25 10.5C19.25 5.6875 15.3125 1.75 10.5 1.75ZM14.175 9.0125L9.975 13.2125C9.625 13.5625 9.1 13.5625 8.75 13.2125L6.825 11.2875C6.475 10.9375 6.475 10.4125 6.825 10.0625C7.175 9.7125 7.7 9.7125 8.05 10.0625L9.3625 11.375L12.95 7.7875C13.3 7.4375 13.825 7.4375 14.175 7.7875C14.525 8.1375 14.525 8.6625 14.175 9.0125Z" fill="#52A6F8"/>
</svg>
