<svg width="21" height="18" viewBox="0 0 21 18" fill="none" xmlns="http://www.w3.org/2000/svg">
<path d="M18.4752 4.80418C18.4855 4.98926 18.4855 5.17435 18.4855 5.34918C18.4828 6.48784 18.3166 7.62022 17.9918 8.7116C17.3075 11.2267 15.8049 13.4422 13.7212 15.0082C11.6375 16.5742 9.09161 17.4015 6.48542 17.3595C4.19117 17.362 1.94509 16.7014 0.0175781 15.4571C0.351881 15.4985 0.688426 15.5191 1.02528 15.5188C2.92371 15.5206 4.76744 14.8831 6.25928 13.709C5.38059 13.6925 4.52893 13.4023 3.82299 12.8789C3.11705 12.3554 2.59198 11.6248 2.32096 10.7888C2.58258 10.8336 2.84734 10.8576 3.11276 10.8608C3.49174 10.8622 3.86903 10.8102 4.23354 10.7065C3.33111 10.5278 2.51233 10.0577 1.90299 9.36853C1.29366 8.67932 0.927503 7.80909 0.860778 6.89157C0.84368 6.78622 0.836785 6.67948 0.840188 6.57281V6.52139C1.42622 6.84758 2.08233 7.02748 2.75277 7.04582C2.17571 6.66117 1.70283 6.13968 1.37629 5.52786C1.04976 4.91605 0.879723 4.23292 0.881358 3.53942C0.880621 2.79267 1.07561 2.05878 1.4469 1.41088C2.50591 2.71573 3.82787 3.78292 5.3267 4.54297C6.82553 5.30301 8.46763 5.73887 10.1461 5.82217C9.93371 4.91735 10.0261 3.96773 10.4088 3.1208C10.7916 2.27387 11.4434 1.57706 12.2628 1.1386C13.0823 0.700138 14.0237 0.544577 14.9406 0.696079C15.8576 0.847581 16.6989 1.29767 17.3338 1.97642C18.2806 1.78956 19.1883 1.44177 20.0176 0.948138C20.0533 1.66403 19.9339 2.37918 19.6677 3.04469C19.4015 3.7102 18.9947 4.31038 18.4752 4.80418Z" fill="#7D87AA"/>
</svg>
