<svg width="100%" height="100%" viewBox="0 0 1150 1000" fill="none" xmlns="http://www.w3.org/2000/svg">
<g opacity="0.3">
<path d="M1063.8 335.123C1053.65 324.99 1040.3 318.689 1026.03 317.294C1011.76 315.899 997.438 319.496 985.519 327.473C973.599 335.45 964.813 347.312 960.658 361.04C956.504 374.768 957.237 389.511 962.733 402.759C968.229 416.007 978.148 426.939 990.801 433.694C1003.45 440.449 1018.06 442.608 1032.12 439.803C1046.19 436.999 1058.85 429.405 1067.94 418.315C1077.04 407.224 1082 393.324 1082 378.981C1081.98 362.529 1075.44 346.756 1063.8 335.123ZM1016.73 434.505C1002.57 433.671 989.264 427.459 979.533 417.139C969.802 406.819 964.382 393.171 964.382 378.986C964.382 364.802 969.802 351.154 979.533 340.833C989.264 330.513 1002.57 324.301 1016.73 323.468V344.513C1008.13 345.297 1000.13 349.268 994.305 355.647C988.481 362.025 985.252 370.351 985.252 378.989C985.252 387.626 988.481 395.952 994.305 402.331C1000.13 408.71 1008.13 412.681 1016.73 413.465V434.505ZM1019.93 407.195C1013.4 407.2 1007.06 404.938 1002.01 400.795C996.955 396.653 993.494 390.886 992.216 384.478C990.938 378.069 991.921 371.416 994.999 365.652C998.077 359.887 1003.06 355.369 1009.1 352.866C1015.13 350.364 1021.85 350.032 1028.1 351.928C1034.36 353.824 1039.76 357.829 1043.39 363.262C1047.02 368.695 1048.66 375.219 1048.02 381.722C1047.37 388.226 1044.5 394.305 1039.88 398.926C1034.59 404.216 1027.42 407.19 1019.94 407.195H1019.93ZM1060.36 417.126C1050.63 427.446 1037.32 433.659 1023.16 434.492V413.46C1031.76 412.676 1039.76 408.705 1045.59 402.326C1051.41 395.947 1054.64 387.621 1054.64 378.984C1054.64 370.346 1051.41 362.02 1045.59 355.642C1039.76 349.263 1031.76 345.292 1023.16 344.508V323.468C1033.72 324.09 1043.89 327.712 1052.47 333.91C1061.04 340.107 1067.67 348.622 1071.58 358.455C1075.48 368.289 1076.5 379.032 1074.51 389.424C1072.53 399.817 1067.62 409.427 1060.36 417.126Z" fill="url(#paint0_linear_2479_25)"/>
</g>
<g opacity="0.5">
<path d="M76.8498 405.318C88.4803 416.93 103.777 424.149 120.133 425.748C136.49 427.346 152.894 423.224 166.553 414.084C180.211 404.944 190.278 391.351 195.038 375.622C199.799 359.892 198.959 342.998 192.661 327.818C186.363 312.639 174.998 300.112 160.5 292.372C146.002 284.632 129.269 282.158 113.152 285.371C97.0351 288.584 82.5305 297.286 72.1094 309.994C61.6882 322.702 55.9952 338.629 56.0002 355.064C56.0211 373.915 63.5193 391.989 76.8498 405.318ZM130.79 291.443C147.015 292.398 162.261 299.516 173.411 311.341C184.561 323.166 190.772 338.805 190.772 355.058C190.772 371.311 184.561 386.95 173.411 398.775C162.261 410.601 147.015 417.719 130.79 418.674L130.79 394.559C140.646 393.661 149.811 389.111 156.484 381.802C163.158 374.493 166.858 364.953 166.858 355.055C166.858 345.158 163.158 335.618 156.484 328.309C149.811 321 140.646 316.45 130.79 315.551L130.79 291.443ZM127.121 322.736C134.609 322.73 141.867 325.322 147.658 330.068C153.449 334.815 157.414 341.423 158.879 348.766C160.343 356.109 159.216 363.732 155.689 370.337C152.162 376.942 146.454 382.12 139.537 384.987C132.62 387.855 124.923 388.235 117.757 386.063C110.592 383.891 104.401 379.301 100.24 373.075C96.0799 366.85 94.207 359.374 94.941 351.923C95.6749 344.471 98.9703 337.505 104.265 332.211C110.323 326.149 118.54 322.741 127.11 322.736L127.121 322.736ZM80.7945 311.356C91.9458 299.53 107.194 292.412 123.419 291.457L123.419 315.557C113.563 316.455 104.398 321.006 97.7246 328.315C91.0512 335.624 87.3513 345.164 87.3513 355.061C87.3513 364.958 91.0512 374.498 97.7246 381.807C104.398 389.116 113.563 393.667 123.419 394.565L123.419 418.674C111.317 417.961 99.6686 413.81 89.8424 406.709C80.0162 399.608 72.4196 389.851 67.9444 378.583C63.4693 367.316 62.3012 355.006 64.5773 343.098C66.8534 331.19 72.4793 320.178 80.7945 311.356Z" fill="url(#paint1_linear_2479_25)"/>
</g>
<g opacity="0.5">
<path d="M1023.58 470.377C1017.77 464.575 1010.13 460.967 1001.95 460.168C993.779 459.37 985.582 461.429 978.757 465.997C971.932 470.564 966.901 477.356 964.522 485.216C962.143 493.077 962.563 501.519 965.71 509.104C968.857 516.689 974.537 522.949 981.781 526.817C989.026 530.684 997.387 531.921 1005.44 530.315C1013.49 528.709 1020.74 524.361 1025.95 518.011C1031.16 511.661 1034 503.702 1034 495.489C1033.99 486.069 1030.24 477.038 1023.58 470.377ZM996.627 527.281C988.52 526.804 980.901 523.247 975.329 517.338C969.758 511.429 966.654 503.614 966.654 495.492C966.654 487.37 969.758 479.556 975.329 473.646C980.901 467.737 988.52 464.18 996.627 463.703V475.753C991.702 476.202 987.123 478.476 983.788 482.128C980.453 485.781 978.604 490.548 978.604 495.493C978.604 500.439 980.453 505.206 983.788 508.859C987.123 512.511 991.702 514.785 996.627 515.234V527.281ZM998.461 511.644C994.719 511.647 991.092 510.352 988.198 507.98C985.305 505.608 983.323 502.306 982.591 498.636C981.859 494.967 982.423 491.158 984.185 487.857C985.948 484.557 988.8 481.969 992.256 480.536C995.713 479.104 999.559 478.914 1003.14 479.999C1006.72 481.084 1009.81 483.378 1011.89 486.489C1013.97 489.6 1014.91 493.335 1014.54 497.059C1014.17 500.782 1012.53 504.264 1009.88 506.909C1006.85 509.938 1002.75 511.641 998.466 511.644H998.461ZM1021.61 517.33C1016.04 523.24 1008.42 526.797 1000.31 527.274V515.231C1005.24 514.782 1009.82 512.508 1013.15 508.856C1016.48 505.203 1018.33 500.436 1018.33 495.491C1018.33 490.545 1016.48 485.778 1013.15 482.125C1009.82 478.473 1005.24 476.199 1000.31 475.75V463.703C1006.36 464.06 1012.18 466.134 1017.09 469.682C1022 473.231 1025.8 478.106 1028.03 483.737C1030.27 489.367 1030.85 495.518 1029.71 501.469C1028.58 507.419 1025.77 512.922 1021.61 517.33Z" fill="url(#paint2_linear_2479_25)"/>
</g>
<g opacity="0.3">
<path d="M120.646 247.306C125.468 252.121 131.811 255.115 138.594 255.777C145.376 256.44 152.178 254.731 157.842 250.941C163.505 247.151 167.68 241.514 169.654 234.992C171.628 228.469 171.28 221.464 168.668 215.17C166.057 208.875 161.344 203.681 155.332 200.471C149.32 197.262 142.382 196.236 135.699 197.569C129.016 198.901 123.001 202.509 118.68 207.779C114.359 213.048 111.998 219.653 112 226.467C112.009 234.284 115.118 241.779 120.646 247.306ZM143.012 200.086C149.74 200.482 156.063 203.434 160.686 208.337C165.309 213.241 167.885 219.726 167.885 226.465C167.885 233.205 165.309 239.689 160.686 244.593C156.063 249.496 149.74 252.448 143.012 252.844L143.012 242.845C147.099 242.472 150.9 240.585 153.667 237.555C156.434 234.524 157.968 230.568 157.968 226.464C157.968 222.36 156.434 218.404 153.667 215.373C150.9 212.342 147.099 210.456 143.012 210.083L143.012 200.086ZM141.491 213.062C144.596 213.06 147.606 214.134 150.007 216.103C152.408 218.071 154.053 220.811 154.66 223.856C155.267 226.901 154.8 230.062 153.337 232.801C151.875 235.54 149.508 237.686 146.64 238.876C143.771 240.065 140.58 240.222 137.608 239.321C134.637 238.421 132.07 236.518 130.345 233.936C128.62 231.355 127.843 228.255 128.147 225.165C128.452 222.075 129.818 219.186 132.014 216.991C134.526 214.478 137.933 213.064 141.487 213.062L141.491 213.062ZM122.281 208.343C126.905 203.44 133.228 200.488 139.956 200.092L139.956 210.085C135.869 210.458 132.069 212.345 129.302 215.376C126.534 218.406 125 222.362 125 226.466C125 230.57 126.534 234.526 129.302 237.557C132.069 240.588 135.869 242.475 139.956 242.847L139.956 252.844C134.938 252.548 130.108 250.827 126.033 247.883C121.959 244.938 118.809 240.892 116.953 236.22C115.097 231.548 114.613 226.443 115.557 221.506C116.5 216.568 118.833 212.002 122.281 208.343Z" fill="url(#paint3_linear_2479_25)"/>
</g>
<g opacity="0.15">
<path d="M1135.99 439.961C1129.86 433.832 1121.78 430.022 1113.15 429.178C1104.51 428.334 1095.85 430.51 1088.64 435.335C1081.43 440.159 1076.12 447.334 1073.61 455.637C1071.09 463.94 1071.54 472.858 1074.86 480.87C1078.19 488.883 1084.19 495.495 1091.84 499.581C1099.49 503.666 1108.32 504.972 1116.83 503.276C1125.34 501.58 1133 496.987 1138.5 490.279C1144 483.571 1147 475.164 1147 466.489C1146.99 456.538 1143.03 446.998 1135.99 439.961ZM1107.52 500.071C1098.96 499.567 1090.91 495.81 1085.02 489.568C1079.14 483.326 1075.86 475.071 1075.86 466.492C1075.86 457.912 1079.14 449.657 1085.02 443.415C1090.91 437.173 1098.96 433.416 1107.52 432.912V445.641C1102.32 446.115 1097.48 448.517 1093.96 452.375C1090.44 456.233 1088.48 461.269 1088.48 466.493C1088.48 471.717 1090.44 476.753 1093.96 480.611C1097.48 484.469 1102.32 486.871 1107.52 487.345V500.071ZM1109.46 483.553C1105.51 483.556 1101.67 482.188 1098.62 479.683C1095.56 477.177 1093.47 473.689 1092.69 469.813C1091.92 465.937 1092.52 461.913 1094.38 458.426C1096.24 454.94 1099.25 452.207 1102.9 450.693C1106.56 449.18 1110.62 448.979 1114.4 450.126C1118.18 451.272 1121.45 453.695 1123.65 456.981C1125.84 460.267 1126.83 464.213 1126.44 468.147C1126.06 472.08 1124.32 475.757 1121.52 478.552C1118.33 481.751 1113.99 483.55 1109.46 483.553H1109.46ZM1133.91 489.56C1128.03 495.802 1119.98 499.56 1111.41 500.064V487.342C1116.62 486.868 1121.45 484.466 1124.98 480.608C1128.5 476.75 1130.45 471.714 1130.45 466.49C1130.45 461.266 1128.5 456.23 1124.98 452.372C1121.45 448.514 1116.62 446.112 1111.41 445.638V432.912C1117.8 433.288 1123.95 435.479 1129.14 439.228C1134.32 442.976 1138.33 448.126 1140.7 454.074C1143.06 460.021 1143.67 466.519 1142.47 472.805C1141.27 479.091 1138.3 484.903 1133.91 489.56Z" fill="url(#paint4_linear_2479_25)"/>
</g>
<g opacity="0.15">
<path d="M11.0057 268.039C17.1449 274.168 25.2192 277.978 33.853 278.822C42.4868 279.666 51.1461 277.49 58.3557 272.665C65.5653 267.841 70.8792 260.666 73.3922 252.363C75.9051 244.06 75.4616 235.142 72.1373 227.13C68.813 219.117 62.8135 212.505 55.1608 208.419C47.5081 204.334 38.6757 203.028 30.1681 204.724C21.6606 206.42 14.0043 211.013 8.50341 217.721C3.00255 224.429 -0.00253089 232.836 0.000100862 241.511C0.0111325 251.462 3.96912 261.002 11.0057 268.039ZM39.478 207.929C48.0425 208.433 56.0906 212.19 61.9762 218.432C67.8617 224.674 71.1398 232.929 71.1398 241.508C71.1398 250.088 67.8617 258.343 61.9762 264.585C56.0906 270.827 48.0425 274.584 39.478 275.088L39.478 262.359C44.6809 261.885 49.5185 259.483 53.0411 255.625C56.5637 251.767 58.5167 246.731 58.5167 241.507C58.5167 236.283 56.5637 231.247 53.0411 227.389C49.5185 223.531 44.6809 221.129 39.478 220.655L39.478 207.929ZM37.5418 224.447C41.4941 224.444 45.3252 225.812 48.382 228.317C51.4388 230.823 53.532 234.311 54.3051 238.187C55.0781 242.063 54.4831 246.087 52.6214 249.574C50.7596 253.06 47.7465 255.793 44.0954 257.307C40.4443 258.82 36.3813 259.021 32.5989 257.874C28.8164 256.728 25.5486 254.305 23.3525 251.019C21.1564 247.733 20.1678 243.787 20.5552 239.853C20.9426 235.92 22.6821 232.243 25.4772 229.448C28.6748 226.249 33.0122 224.45 37.5358 224.447L37.5418 224.447ZM13.0879 218.44C18.9742 212.198 27.0227 208.44 35.5876 207.936L35.5876 220.658C30.3848 221.132 25.5471 223.534 22.0245 227.392C18.502 231.25 16.5489 236.286 16.5489 241.51C16.5489 246.734 18.502 251.77 22.0245 255.628C25.5471 259.486 30.3848 261.888 35.5876 262.362L35.5876 275.088C29.1992 274.712 23.0507 272.521 17.8639 268.772C12.6771 265.024 8.66718 259.874 6.30493 253.926C3.94268 247.979 3.3261 241.481 4.52757 235.195C5.72904 228.909 8.69868 223.097 13.0879 218.44Z" fill="url(#paint5_linear_2479_25)"/>
</g>
<g opacity="0.2">
<g filter="url(#filter0_f_2479_25)">
<circle r="5.37616" transform="matrix(-1 0 0 1 457.383 14.3762)" fill="white"/>
</g>
<g filter="url(#filter1_f_2479_25)">
<circle r="4.18146" transform="matrix(-1 0 0 1 457.383 14.3763)" fill="white"/>
</g>
<g filter="url(#filter2_f_2479_25)">
<circle r="5.37616" transform="matrix(-1 0 0 1 85.9974 413.376)" fill="white"/>
</g>
<g filter="url(#filter3_f_2479_25)">
<circle r="4.18146" transform="matrix(-1 0 0 1 59.1813 459.416)" fill="white"/>
</g>
<g filter="url(#filter4_f_2479_25)">
<circle r="2.98675" transform="matrix(-1 0 0 1 41.1536 131.865)" fill="white"/>
</g>
<g filter="url(#filter5_f_2479_25)">
<circle r="2.32303" transform="matrix(-1 0 0 1 41.1535 131.865)" fill="white"/>
</g>
<g filter="url(#filter6_f_2479_25)">
<circle r="2.98675" transform="matrix(-1 0 0 1 1065.01 17.1733)" fill="white"/>
</g>
<g filter="url(#filter7_f_2479_25)">
<circle r="2.32303" transform="matrix(-1 0 0 1 1065.01 17.1731)" fill="white"/>
</g>
<g filter="url(#filter8_f_2479_25)">
<circle r="5.37616" transform="matrix(-1 0 0 1 280.094 517.754)" fill="white"/>
</g>
<g filter="url(#filter9_f_2479_25)">
<circle r="4.18146" transform="matrix(-1 0 0 1 280.094 517.754)" fill="white"/>
</g>
</g>
<defs>
<filter id="filter0_f_2479_25" x="443.007" y="0" width="28.7523" height="28.7524" filterUnits="userSpaceOnUse" color-interpolation-filters="sRGB">
<feFlood flood-opacity="0" result="BackgroundImageFix"/>
<feBlend mode="normal" in="SourceGraphic" in2="BackgroundImageFix" result="shape"/>
<feGaussianBlur stdDeviation="4.5" result="effect1_foregroundBlur_2479_25"/>
</filter>
<filter id="filter1_f_2479_25" x="451.201" y="8.19482" width="12.3629" height="12.3628" filterUnits="userSpaceOnUse" color-interpolation-filters="sRGB">
<feFlood flood-opacity="0" result="BackgroundImageFix"/>
<feBlend mode="normal" in="SourceGraphic" in2="BackgroundImageFix" result="shape"/>
<feGaussianBlur stdDeviation="1" result="effect1_foregroundBlur_2479_25"/>
</filter>
<filter id="filter2_f_2479_25" x="71.6213" y="399" width="28.7522" height="28.7524" filterUnits="userSpaceOnUse" color-interpolation-filters="sRGB">
<feFlood flood-opacity="0" result="BackgroundImageFix"/>
<feBlend mode="normal" in="SourceGraphic" in2="BackgroundImageFix" result="shape"/>
<feGaussianBlur stdDeviation="4.5" result="effect1_foregroundBlur_2479_25"/>
</filter>
<filter id="filter3_f_2479_25" x="53" y="453.234" width="12.3628" height="12.3628" filterUnits="userSpaceOnUse" color-interpolation-filters="sRGB">
<feFlood flood-opacity="0" result="BackgroundImageFix"/>
<feBlend mode="normal" in="SourceGraphic" in2="BackgroundImageFix" result="shape"/>
<feGaussianBlur stdDeviation="1" result="effect1_foregroundBlur_2479_25"/>
</filter>
<filter id="filter4_f_2479_25" x="29.167" y="119.878" width="23.9734" height="23.9736" filterUnits="userSpaceOnUse" color-interpolation-filters="sRGB">
<feFlood flood-opacity="0" result="BackgroundImageFix"/>
<feBlend mode="normal" in="SourceGraphic" in2="BackgroundImageFix" result="shape"/>
<feGaussianBlur stdDeviation="4.5" result="effect1_foregroundBlur_2479_25"/>
</filter>
<filter id="filter5_f_2479_25" x="36.8306" y="127.542" width="8.646" height="8.646" filterUnits="userSpaceOnUse" color-interpolation-filters="sRGB">
<feFlood flood-opacity="0" result="BackgroundImageFix"/>
<feBlend mode="normal" in="SourceGraphic" in2="BackgroundImageFix" result="shape"/>
<feGaussianBlur stdDeviation="1" result="effect1_foregroundBlur_2479_25"/>
</filter>
<filter id="filter6_f_2479_25" x="1053.03" y="5.18652" width="23.9735" height="23.9736" filterUnits="userSpaceOnUse" color-interpolation-filters="sRGB">
<feFlood flood-opacity="0" result="BackgroundImageFix"/>
<feBlend mode="normal" in="SourceGraphic" in2="BackgroundImageFix" result="shape"/>
<feGaussianBlur stdDeviation="4.5" result="effect1_foregroundBlur_2479_25"/>
</filter>
<filter id="filter7_f_2479_25" x="1060.69" y="12.8501" width="8.64612" height="8.646" filterUnits="userSpaceOnUse" color-interpolation-filters="sRGB">
<feFlood flood-opacity="0" result="BackgroundImageFix"/>
<feBlend mode="normal" in="SourceGraphic" in2="BackgroundImageFix" result="shape"/>
<feGaussianBlur stdDeviation="1" result="effect1_foregroundBlur_2479_25"/>
</filter>
<filter id="filter8_f_2479_25" x="265.718" y="503.377" width="28.7522" height="28.7524" filterUnits="userSpaceOnUse" color-interpolation-filters="sRGB">
<feFlood flood-opacity="0" result="BackgroundImageFix"/>
<feBlend mode="normal" in="SourceGraphic" in2="BackgroundImageFix" result="shape"/>
<feGaussianBlur stdDeviation="4.5" result="effect1_foregroundBlur_2479_25"/>
</filter>
<filter id="filter9_f_2479_25" x="273.913" y="511.572" width="12.3628" height="12.3628" filterUnits="userSpaceOnUse" color-interpolation-filters="sRGB">
<feFlood flood-opacity="0" result="BackgroundImageFix"/>
<feBlend mode="normal" in="SourceGraphic" in2="BackgroundImageFix" result="shape"/>
<feGaussianBlur stdDeviation="1" result="effect1_foregroundBlur_2479_25"/>
</filter>
<linearGradient id="paint0_linear_2479_25" x1="976.104" y1="422.896" x2="1063.77" y2="335.228" gradientUnits="userSpaceOnUse">
<stop offset="0.005" stop-color="#2D9CFD"/>
<stop offset="1" stop-color="#37DAFD"/>
</linearGradient>
<linearGradient id="paint1_linear_2479_25" x1="177.34" y1="304.744" x2="76.8865" y2="405.198" gradientUnits="userSpaceOnUse">
<stop offset="0.005" stop-color="#2D9CFD"/>
<stop offset="1" stop-color="#37DAFD"/>
</linearGradient>
<linearGradient id="paint2_linear_2479_25" x1="973.366" y1="520.634" x2="1023.56" y2="470.437" gradientUnits="userSpaceOnUse">
<stop offset="0.005" stop-color="#2D9CFD"/>
<stop offset="1" stop-color="#37DAFD"/>
</linearGradient>
<linearGradient id="paint3_linear_2479_25" x1="162.315" y1="205.602" x2="120.661" y2="247.256" gradientUnits="userSpaceOnUse">
<stop offset="0.005" stop-color="#2D9CFD"/>
<stop offset="1" stop-color="#37DAFD"/>
</linearGradient>
<linearGradient id="paint4_linear_2479_25" x1="1082.95" y1="493.05" x2="1135.97" y2="440.025" gradientUnits="userSpaceOnUse">
<stop offset="0.005" stop-color="#2D9CFD"/>
<stop offset="1" stop-color="#37DAFD"/>
</linearGradient>
<linearGradient id="paint5_linear_2479_25" x1="64.05" y1="214.95" x2="11.025" y2="267.975" gradientUnits="userSpaceOnUse">
<stop offset="0.005" stop-color="#2D9CFD"/>
<stop offset="1" stop-color="#37DAFD"/>
</linearGradient>
</defs>
</svg>
